<?xml version="1.0" encoding="utf-8"?>
<!-- Generator: Adobe Illustrator 22.0.1, SVG Export Plug-In . SVG Version: 6.00 Build 0)  -->
<svg version="1.1" id="Layer_1" xmlns="http://www.w3.org/2000/svg" xmlns:xlink="http://www.w3.org/1999/xlink" x="0px" y="0px"
	 viewBox="0 0 203.5 55.8" style="enable-background:new 0 0 203.5 55.8;" xml:space="preserve">
<style type="text/css">
	.st0{fill:#38673D;}
	.st1{fill:#51924B;}
	.st2{fill:#6FB353;}
	.st3{fill:#3A663A;}
	.st4{fill:#8FB24C;}
	.st5{fill:#F1DB33;}
	.st6{fill:#E4DA39;}
	.st7{fill:#DCDA3C;}
</style>
<g>
	<path d="M16,52.2c-2.8,0-5.4-0.7-7.7-2.1c-2.3-1.4-4.1-3.4-5.5-5.8c-1.4-2.5-2-5.3-2-8.4c0-3.1,0.6-5.8,2-8.3
		c1.3-2.4,3.1-4.4,5.4-5.8c2.3-1.4,4.9-2.1,7.9-2.1c2.2,0,4.2,0.4,6.1,1.2c1.9,0.8,3.4,2,4.6,3.5v-3.8h9.2v30.7h-9.2v-4
		c-1.4,1.6-3,2.9-4.8,3.7C20.1,51.8,18.1,52.2,16,52.2z M18.7,44.4c1.6,0,3-0.4,4.3-1.1c1.2-0.7,2.2-1.7,2.9-3c0.7-1.3,1-2.7,1-4.4
		c0-1.7-0.4-3.1-1.1-4.4c-0.7-1.3-1.7-2.3-2.9-3s-2.6-1.1-4.2-1.1c-1.6,0-3,0.4-4.2,1.1c-1.2,0.7-2.2,1.7-2.9,3
		c-0.7,1.3-1.1,2.7-1.1,4.4c0,1.6,0.4,3.1,1.1,4.4c0.7,1.3,1.7,2.3,2.9,3C15.7,44,17.1,44.4,18.7,44.4z"/>
	<path class="st7" d="M68,52.2c-3.4,0-6.5-0.6-9.5-1.9c-2.9-1.3-5.5-3.1-7.7-5.4c-2.2-2.3-3.9-5.1-5.1-8.2s-1.8-6.5-1.8-10.2
		c0-3.5,0.6-6.8,1.8-9.9s2.9-5.8,5.1-8.2s4.8-4.2,7.9-5.5c3.1-1.3,6.5-2,10.3-2c2,0,4.1,0.2,6.3,0.6s4.3,1.1,6.3,1.9
		c2.1,0.9,3.9,1.9,5.6,3.2l-5.4,9c-1.7-1.4-3.7-2.5-6-3.2s-4.6-1.1-6.7-1.1c-2.1,0-3.9,0.4-5.5,1.1s-2.9,1.7-4,3
		c-1.1,1.3-1.9,2.9-2.4,4.7c-0.6,1.8-0.8,3.8-0.8,6c0,2.4,0.3,4.6,0.9,6.5c0.6,1.9,1.5,3.6,2.6,4.9c1.1,1.4,2.4,2.4,3.9,3.1
		c1.5,0.7,3.1,1.1,4.8,1.1c1.4,0,2.7-0.2,4-0.7c1.3-0.4,2.4-1.1,3.3-1.9c1-0.8,1.7-1.8,2.3-2.8c0.6-1.1,0.8-2.2,0.8-3.4v-0.4H68
		v-8.9h22.9v8.6c0,2.8-0.6,5.5-1.8,7.9c-1.2,2.5-2.9,4.6-5,6.4c-2.1,1.8-4.6,3.3-7.3,4.3C73.9,51.7,71,52.2,68,52.2z"/>
	<path d="M98.8,51.2V20.5h9.2v4.4c1.1-1.7,2.5-3,4.2-4s3.4-1.4,5.3-1.4c1.1,0,2.2,0.2,3.4,0.5c1.2,0.3,2.1,0.7,2.9,1.2l-3.8,7.8
		c-0.7-0.5-1.5-0.8-2.4-1.1s-1.8-0.4-2.5-0.4c-1.2,0-2.3,0.3-3.4,0.9c-1.1,0.6-2,1.4-2.6,2.4s-1,2.1-1,3.2v17.2H98.8z"/>
	<path d="M141.2,52.2c-2.8,0-5.4-0.7-7.7-2.1c-2.3-1.4-4.1-3.4-5.5-5.8c-1.3-2.5-2-5.3-2-8.4c0-3.1,0.7-5.8,2-8.3
		c1.3-2.4,3.1-4.4,5.4-5.8c2.3-1.4,4.9-2.1,7.9-2.1c2.2,0,4.2,0.4,6.1,1.2c1.9,0.8,3.4,2,4.6,3.5v-3.8h9.2v30.7h-9.2v-4
		c-1.4,1.6-3,2.9-4.8,3.7C145.3,51.8,143.3,52.2,141.2,52.2z M143.9,44.4c1.6,0,3-0.4,4.3-1.1c1.2-0.7,2.2-1.7,2.9-3
		c0.7-1.3,1.1-2.7,1.1-4.4c0-1.7-0.4-3.1-1.1-4.4s-1.7-2.3-2.9-3c-1.2-0.7-2.6-1.1-4.2-1.1c-1.6,0-3,0.4-4.2,1.1
		c-1.2,0.7-2.2,1.7-2.9,3c-0.7,1.3-1.1,2.7-1.1,4.4c0,1.6,0.4,3.1,1.1,4.4c0.7,1.3,1.7,2.3,2.9,3S142.3,44.4,143.9,44.4z"/>
	<path d="M186.7,52.2c-3.3,0-6.3-0.7-8.9-2.1s-4.7-3.4-6.3-5.8c-1.5-2.5-2.3-5.2-2.3-8.3c0-2.3,0.4-4.4,1.3-6.4s2.1-3.7,3.6-5.2
		c1.6-1.5,3.4-2.7,5.4-3.5c2.1-0.8,4.3-1.2,6.7-1.2c3.2,0,6,0.7,8.4,2c2.4,1.3,4.3,3.2,5.6,5.5c1.3,2.4,2,5.1,2,8.3
		c0,0.3,0,0.5,0,0.7c0,0.2,0,0.5-0.1,1.1h-23.6c0,1.6,0.4,2.9,1.1,4.1s1.7,2.1,3,2.7c1.3,0.7,2.8,1,4.5,1c1.6,0,3-0.3,4.2-0.9
		c1.2-0.6,2.4-1.6,3.6-3l6.6,3.3c-1.4,2.5-3.5,4.4-6.1,5.8C192.9,51.5,190,52.2,186.7,52.2z M179,32h14.3c-0.2-1.2-0.6-2.2-1.3-3.1
		c-0.6-0.9-1.5-1.5-2.5-2s-2.1-0.7-3.4-0.7c-1.3,0-2.5,0.2-3.5,0.7c-1,0.5-1.8,1.1-2.5,2C179.6,29.8,179.2,30.8,179,32z"/>
</g>
</svg>
