<?xml version="1.0" encoding="utf-8"?>
<!-- Generator: Adobe Illustrator 22.0.1, SVG Export Plug-In . SVG Version: 6.00 Build 0)  -->
<svg version="1.1" id="_x2018_ëîé_x5F_1" xmlns="http://www.w3.org/2000/svg" xmlns:xlink="http://www.w3.org/1999/xlink"
	 x="0px" y="0px" viewBox="0 0 3200 2000" style="enable-background:new 0 0 3200 2000;" xml:space="preserve">
<style type="text/css">
	.st0{fill:#DCEAFF;}
	.st1{opacity:0.5;fill:#F8FCFF;}
	.st2{fill:#FFCF83;}
	.st3{fill:#ADC8FE;}
	.st4{fill:#F7C274;}
	.st5{fill:#82B378;}
	.st6{fill:#6E9E63;}
	.st7{fill:#365DA4;}
	.st8{fill:#FFF3E9;}
	.st9{fill:#ED9F4A;}
	.st10{fill:#F9DDBF;}
	.st11{fill:#EFCDAF;}
	.st12{fill:#E58638;}
	.st13{fill:#2B478B;}
	.st14{fill:#AEC3FF;}
	.st15{fill:#F8FCFF;}
	.st16{fill:#EDBD77;}
	.st17{fill:#CCA283;}
	.st18{fill:#FFE7D7;}
	.st19{opacity:0.6;fill:#F8FCFF;}
	.st20{fill:#7FA4F4;}
	.st21{fill:#F99746;}
	.st22{fill:#FFFFFF;}
	.st23{fill:#FFB27D;}
	.st24{fill:#2C3A64;}
	.st25{fill:#E2AF64;}
	.st26{fill:#233862;}
	.st27{fill:#ED985F;}
	.st28{fill:#ED7D2B;}
	.st29{fill:#FFF2E9;}
	.st30{fill:#A4C9FF;}
	.st31{fill:#71A4FF;}
	.st32{fill:#2E3552;}
</style>
<rect class="st0" width="3200" height="2009"/>
<g>
	<path class="st1" d="M906,1060.8c0,0,15.7-43.8,53.1-38.9c0,0,54.4-73,112.3-9.7c0,0,61.6-15.7,107.2,13.6
		c30.4,19.5,40.5,40,40.5,40L906,1060.8z"/>
	<path class="st1" d="M679.3,907.9c0,0,19-53.1,64.3-47.2c0,0,65.9-88.4,136.1-11.8c0,0,74.6-19,129.9,16.4
		c36.9,23.6,49,48.4,49,48.4L679.3,907.9z"/>
	<path class="st1" d="M1314.8,862.4c0,0,25.2-46.5,85.4-41.3c0,0,87.4-77.4,180.6-10.3c0,0,99.1-16.6,172.5,14.4
		c48.9,20.7,65.1,42.4,65.1,42.4L1314.8,862.4z"/>
	<path class="st2" d="M2142.8,1825.1h-812.4l-338.7-0.2H379.2c0,0-0.4-0.6-1-1.8c-0.5-0.9-1.2-2.1-2-3.6l-0.3-0.4c0,0,0,0,0-0.2
		c0,0-0.3-0.2-0.3-0.5c-1.4-1.8-2.4-3.8-3.7-6.3c-0.7-1.1-1.4-2.5-2.4-3.8c0-0.2,0-0.2,0-0.5c-0.3-0.2-0.3-0.2-0.3-0.2
		c-4.6-8-10.4-18.5-17-31.1c-0.6-1.1-1.2-2.3-1.8-3.5c-3.3-9.5-7-20.2-10.8-32c-9.2-28.5-19.8-63.4-30.1-102.7
		c-4-15.5-8.1-31.7-11.9-48.6c-2.3-9.7-4.5-19.9-6.7-30.1c-0.6-3-1.2-6-1.9-9c-4-19.2-7.7-38.9-11.1-59.1
		c-6.6-39.5-11.8-80.7-14.8-122.4c263.1,13.6,770.2,49.2,1151.6,134.4c538.2,120.2,671.3,139.6,899.3,161.2
		C2441.4,1676.9,2295.8,1756.9,2142.8,1825.1z"/>
	<g>
		<polygon class="st3" points="1682,1299.9 1662.9,1673 1682,1673 1690.6,1299.9 		"/>
		<polygon class="st3" points="1683.5,1266.2 1688.4,1289.1 1775.1,1186.1 		"/>
		<polygon class="st3" points="1714.7,1293.8 1691.3,1292 1766,1404.1 		"/>
		<polygon class="st3" points="1666.8,1312.1 1680.4,1292.9 1545.9,1299 		"/>
		
			<ellipse transform="matrix(0.9239 -0.3827 0.3827 0.9239 -366.1086 743.4556)" class="st3" cx="1685.7" cy="1292" rx="10.5" ry="10.5"/>
	</g>
	<path class="st4" d="M1625.2,1620.3c0,0-696.3-190.9-915.8-210.1c-219.5-19.2-9.2,25.7-9.2,25.7s595.9,156.8,735.3,221.4
		C1574.9,1721.9,1625.2,1620.3,1625.2,1620.3z"/>
	<path class="st4" d="M1412.9,1772.6c0,0-602-288.9-798.6-343.1c-196.6-54.2-12.7,21.6-12.7,21.6s516.3,241.2,632.5,322.8
		C1350.2,1855.5,1412.9,1772.6,1412.9,1772.6z"/>
	<g>
		<polygon class="st3" points="1193.6,1369.8 1178,1675.1 1193.6,1675.1 1200.6,1369.8 		"/>
		<polygon class="st3" points="1194.9,1342.1 1198.8,1360.9 1269.9,1276.6 		"/>
		<polygon class="st3" points="1220.4,1364.7 1201.2,1363.3 1262.4,1455 		"/>
		<polygon class="st3" points="1181.2,1379.7 1192.3,1364 1082.2,1369 		"/>
		<path class="st3" d="M1188.1,1363.3c0-4.7,3.8-8.6,8.6-8.6s8.6,3.8,8.6,8.6c0,4.7-3.8,8.6-8.6,8.6S1188.1,1368,1188.1,1363.3z"/>
	</g>
	<g>
		<path class="st5" d="M2842.6,1599c-1.4,18.6-3.7,38-7,58.1c-0.1,0.5-0.1,0.9-0.2,1.4c-1.7,10.3-3.7,20.9-5.8,31.4
			c-2,11-4.7,22.7-7.6,34.3c-1.4,5.7-2.9,11.3-4.3,17c-4.7,18-10.1,36.5-16.6,55.8c-2,6.3-4,12.9-6.3,19.2c-0.6,2-1.2,3.9-1.9,5.9
			h-2424c-0.3-1.2-0.8-2.9-1.3-5l-0.2-0.6c0,0,0,0,0-0.3c0,0-0.2-0.3-0.2-0.6c-0.9-2.5-1.6-5.4-2.5-8.8c-0.5-1.6-0.9-3.5-1.6-5.4
			c0-0.3,0-0.3,0-0.6c-0.2-0.3-0.2-0.3-0.2-0.3c-3.1-11.2-6.9-25.9-11.3-43.6c-3.6-14.6-7.7-31.2-12-49.7
			c-9.2-40-19.8-88.8-30.1-144c-4-21.7-8.1-44.4-11.9-68.1c-2.3-13.6-4.5-27.9-6.7-42.2c222.2,84.4,793.6,274.1,1201.7,168
			c73.3-19.1,154.2-36.1,239.1-51.4c19-3.4,38.2-6.7,57.5-10c220.1-36.8,460.8-62.4,662.5-80h0c2.3-0.2,4.6-0.4,7-0.6
			c2.3-0.2,4.5-0.4,6.8-0.6c2.8-0.2,5.5-0.5,8.3-0.7c5.7-0.5,11.4-1,17-1.4c0.7-0.1,1.5-0.1,2.2-0.2c4.3-0.4,8.6-0.7,12.9-1.1
			c15.8-1.3,31.4-2.6,46.6-3.8c3.4-0.3,6.8-0.5,10.2-0.8c3.8-0.3,7.5-0.6,11.2-0.9c5-0.4,10-0.8,14.9-1.2c3.1-0.2,6.1-0.5,9.1-0.7
			c5.4-0.4,10.7-0.8,16-1.2c2.6-0.2,5.2-0.4,7.8-0.6c3.6-0.3,7.1-0.5,10.6-0.8c0.3,0,0.6,0,0.9-0.1c5.7-0.4,11.4-0.9,17.1-1.3
			c1.8-0.1,3.6-0.3,5.4-0.4c0.1,0,0.2,0,0.2,0c0.1,0,0.1,0,0.1,0c45.5-3.4,86.3-6.2,121.3-8.6c6.1,7.4,12,14.9,17.7,22.7
			c2.9,4,5.6,8.1,8.3,12.3c7.8,12.3,14.8,25.2,20.7,38.8c4.1,9.5,7.7,19.3,10.6,29.5C2838.1,1571,2840.9,1584.6,2842.6,1599z"/>
		<path class="st6" d="M1789,1559.6c-57.6,32.4-181.8,115.3-258.1,262.5c-0.5,1-1.1,2.1-1.6,3.1l-58-3.1l-18.1-1
			c1.7-4.9,82.7-127.6,278.4-251.6C1750.5,1566.2,1769.6,1562.9,1789,1559.6z"/>
		<path class="st6" d="M1574.8,1821.4c1.8-5.2,96-148.3,328.5-277.9l18.3,14.3c0,0-178.8,78.6-274.8,267.4L1574.8,1821.4z"/>
		<path class="st6" d="M1742.9,1821.4c1.8-5.2,96-148.3,328.5-277.9l18.3,14.3c0,0-178.8,78.6-274.8,267.4L1742.9,1821.4z"/>
		<path class="st6" d="M2655.8,1463.3c0,0-325.8,33.1-529.2,242.7l-128.4-36.8c3.5-5.2,142.9-113.7,453.2-189.5h0
			C2525.9,1473.2,2595,1467.8,2655.8,1463.3L2655.8,1463.3z"/>
		<path class="st6" d="M2823.7,1528.5c-146.3,35.3-380.6,116.3-555.8,293.7h-112.1l-82.4-23.9c5.2-8.1,228.6-195,729.6-308.6
			C2810.8,1502,2817.8,1514.9,2823.7,1528.5z"/>
	</g>
	<g>
		<g>
			<path class="st6" d="M1655.1,1818.8l1.7-0.4c-0.7-3-2.3-63,16.5-98.1l-1.5-0.8C1652.7,1755,1654.5,1816.3,1655.1,1818.8z"/>
		</g>
		<g>
			<g>
				<path class="st2" d="M1676.5,1688.1c0,0,5.9,12.4,2.3,18C1675.2,1711.7,1672.2,1695.8,1676.5,1688.1z"/>
				<path class="st2" d="M1680.2,1740.6c0,0-5.9-12.4-2.3-18C1681.5,1717,1684.5,1732.9,1680.2,1740.6z"/>
			</g>
			<g>
				<path class="st2" d="M1664.6,1691.9c0,0,11,8.3,10.4,14.9C1674.4,1713.5,1664.4,1700.7,1664.6,1691.9z"/>
				<path class="st2" d="M1692.1,1736.8c0,0-11-8.3-10.4-14.9C1682.4,1715.3,1692.3,1728,1692.1,1736.8z"/>
			</g>
			<g>
				<path class="st2" d="M1656,1700.9c0,0,13.6,2.4,16,8.6C1674.4,1715.7,1659.7,1708.8,1656,1700.9z"/>
				<path class="st2" d="M1700.8,1728.4c0,0-13.6-2.4-16-8.6C1682.4,1713.6,1697,1720.5,1700.8,1728.4z"/>
			</g>
			<g>
				<path class="st2" d="M1653.1,1722.7c0,0,10.9-8.5,17.1-6.1C1676.5,1718.9,1661.6,1725.2,1653.1,1722.7z"/>
				<path class="st2" d="M1704.6,1712.2c0,0-12.2,6.5-17.9,3.1C1681,1711.9,1696.8,1708.2,1704.6,1712.2z"/>
			</g>
			<g>
				<path class="st2" d="M1659.1,1732.2c0,0,6.8-12,13.4-12.3C1679.2,1719.6,1667.9,1731.2,1659.1,1732.2z"/>
				<path class="st2" d="M1699.9,1698.9c0,0-6.8,12-13.4,12.3C1679.9,1711.4,1691.2,1699.8,1699.9,1698.9z"/>
			</g>
			<g>
				<path class="st2" d="M1668,1739.2c0,0,0.9-13.8,6.8-16.9C1680.7,1719.3,1675.5,1734.6,1668,1739.2z"/>
				<path class="st2" d="M1690.4,1691.6c0,0-0.9,13.8-6.8,16.9C1677.8,1711.6,1682.9,1696.2,1690.4,1691.6z"/>
			</g>
			<path class="st2" d="M1652.4,1713.8c0,0,12.9-4.9,18.1-0.9C1675.9,1717,1659.8,1718.7,1652.4,1713.8z"/>
			<path class="st7" d="M1688,1714.6c0-5.3-4.3-9.6-9.6-9.6c-5.3,0-9.6,4.3-9.6,9.6s4.3,9.6,9.6,9.6
				C1683.7,1724.2,1688,1719.9,1688,1714.6z"/>
		</g>
		<path class="st6" d="M1658.4,1763.5c0,0,8.3-8.5,19.9-9.1c11.5-0.6,15.1,0,15.1,0s-7.1,7.5-15.5,9.1
			C1669.4,1765.1,1658.4,1763.5,1658.4,1763.5z"/>
		<path class="st6" d="M1660.1,1755.2c-1.5-1.3-2.6-11.6-11.5-14.2c-8.9-2.6-15.3-3.1-15.3-3.1s7.7,13.5,13.4,15.5
			C1652.4,1755.4,1660.1,1755.2,1660.1,1755.2z"/>
		<g>
			<path class="st6" d="M1610,1818.8l2-0.5c-0.8-3.5-2.8-74.2,19.4-115.4l-1.8-1C1607.1,1743.7,1609.3,1815.9,1610,1818.8z"/>
		</g>
		<g>
			<g>
				<path class="st2" d="M1635.2,1665c0,0,7,14.6,2.7,21.2C1633.7,1692.8,1630.2,1674.1,1635.2,1665z"/>
				<path class="st2" d="M1639.6,1726.8c0,0-7-14.6-2.7-21.2C1641.1,1699,1644.6,1717.8,1639.6,1726.8z"/>
			</g>
			<g>
				<path class="st2" d="M1621.2,1669.5c0,0,12.9,9.8,12.2,17.6C1632.7,1694.8,1620.9,1679.8,1621.2,1669.5z"/>
				<path class="st2" d="M1653.5,1722.3c0,0-12.9-9.8-12.2-17.6C1642.1,1697,1653.8,1712,1653.5,1722.3z"/>
			</g>
			<g>
				<path class="st2" d="M1611,1680c0,0,16,2.8,18.8,10.1C1632.7,1697.4,1615.4,1689.4,1611,1680z"/>
				<path class="st2" d="M1663.8,1712.4c0,0-16-2.8-18.8-10.1C1642.1,1695,1659.3,1703.1,1663.8,1712.4z"/>
			</g>
			<g>
				<path class="st2" d="M1607.7,1705.7c0,0,12.8-10,20.1-7.2C1635.1,1701.2,1617.6,1708.7,1607.7,1705.7z"/>
				<path class="st2" d="M1668.3,1693.3c0,0-14.3,7.6-21.1,3.7C1640.5,1693,1659,1688.7,1668.3,1693.3z"/>
			</g>
			<g>
				<path class="st2" d="M1614.7,1716.8c0,0,8-14.1,15.8-14.4C1638.3,1702.1,1625,1715.7,1614.7,1716.8z"/>
				<path class="st2" d="M1662.7,1677.7c0,0-8,14.1-15.8,14.4C1639.2,1692.5,1652.5,1678.8,1662.7,1677.7z"/>
			</g>
			<g>
				<path class="st2" d="M1625.2,1725.2c0,0,1-16.2,8-19.8C1640.1,1701.7,1634,1719.7,1625.2,1725.2z"/>
				<path class="st2" d="M1651.5,1669.1c0,0-1,16.2-8,19.8C1636.7,1692.6,1642.7,1674.6,1651.5,1669.1z"/>
			</g>
			<path class="st2" d="M1606.9,1695.3c0,0,15.2-5.8,21.4-1C1634.4,1699,1615.5,1701,1606.9,1695.3z"/>
			<path class="st7" d="M1648.7,1696.2c0-6.2-5.1-11.3-11.3-11.3c-6.2,0-11.3,5.1-11.3,11.3c0,6.2,5.1,11.3,11.3,11.3
				C1643.6,1707.5,1648.7,1702.5,1648.7,1696.2z"/>
		</g>
		<path class="st6" d="M1610.7,1782.2c0,0,9.8-10,23.4-10.7c13.5-0.7,17.7,0,17.7,0s-8.3,8.8-18.3,10.7
			C1623.6,1784.1,1610.7,1782.2,1610.7,1782.2z"/>
		<path class="st6" d="M1612.8,1772.5c-1.7-1.5-3-13.7-13.5-16.7c-10.5-3-18-3.6-18-3.6s9.1,15.8,15.7,18.2
			C1603.7,1772.7,1612.8,1772.5,1612.8,1772.5z"/>
		<g>
			<path class="st6" d="M1664.4,1818.8l1.2-0.3c-0.5-2.1-1.7-44.5,11.7-69.2l-1.1-0.6C1662.7,1773.7,1664,1817.1,1664.4,1818.8z"/>
		</g>
		<g>
			<g>
				<path class="st2" d="M1679.5,1726.5c0,0,4.2,8.8,1.6,12.7C1678.6,1743.2,1676.5,1732,1679.5,1726.5z"/>
				<path class="st2" d="M1682.1,1763.6c0,0-4.2-8.8-1.6-12.7C1683.1,1746.9,1685.2,1758.2,1682.1,1763.6z"/>
			</g>
			<g>
				<path class="st2" d="M1671.1,1729.2c0,0,7.8,5.9,7.3,10.5C1678,1744.4,1671,1735.4,1671.1,1729.2z"/>
				<path class="st2" d="M1690.5,1760.9c0,0-7.8-5.9-7.3-10.5C1683.7,1745.7,1690.7,1754.7,1690.5,1760.9z"/>
			</g>
			<g>
				<path class="st2" d="M1665,1735.5c0,0,9.6,1.7,11.3,6.1C1678,1746,1667.7,1741.1,1665,1735.5z"/>
				<path class="st2" d="M1696.7,1755c0,0-9.6-1.7-11.3-6.1C1683.7,1744.5,1694,1749.4,1696.7,1755z"/>
			</g>
			<g>
				<path class="st2" d="M1663,1750.9c0,0,7.7-6,12.1-4.3C1679.5,1748.2,1669,1752.7,1663,1750.9z"/>
				<path class="st2" d="M1699.4,1743.5c0,0-8.6,4.6-12.6,2.2C1682.7,1743.3,1693.8,1740.7,1699.4,1743.5z"/>
			</g>
			<g>
				<path class="st2" d="M1667.3,1757.6c0,0,4.8-8.5,9.5-8.7C1681.4,1748.8,1673.4,1757,1667.3,1757.6z"/>
				<path class="st2" d="M1696.1,1734.1c0,0-4.8,8.5-9.5,8.7C1681.9,1743,1689.9,1734.8,1696.1,1734.1z"/>
			</g>
			<g>
				<path class="st2" d="M1673.5,1762.6c0,0,0.6-9.7,4.8-11.9C1682.5,1748.5,1678.8,1759.4,1673.5,1762.6z"/>
				<path class="st2" d="M1689.3,1729c0,0-0.6,9.7-4.8,11.9C1680.4,1743.1,1684.1,1732.3,1689.3,1729z"/>
			</g>
			<path class="st2" d="M1662.5,1744.7c0,0,9.1-3.5,12.8-0.6C1679.1,1746.9,1667.7,1748.1,1662.5,1744.7z"/>
			<path class="st7" d="M1687.6,1745.3c0-3.7-3-6.8-6.8-6.8c-3.7,0-6.8,3-6.8,6.8c0,3.7,3,6.8,6.8,6.8
				C1684.6,1752,1687.6,1749,1687.6,1745.3z"/>
		</g>
		<path class="st6" d="M1664.9,1796.8c0,0,5.9-6,14-6.4c8.1-0.4,10.6,0,10.6,0s-5,5.3-11,6.4
			C1672.6,1798,1664.9,1796.8,1664.9,1796.8z"/>
		<path class="st6" d="M1666.1,1791c-1-0.9-1.8-8.2-8.1-10c-6.3-1.8-10.8-2.2-10.8-2.2s5.5,9.5,9.4,10.9
			C1660.6,1791.2,1666.1,1791,1666.1,1791z"/>
		<g>
			<path class="st6" d="M1730,1818.8l2-0.5c-0.8-3.5-2.8-74.2,19.4-115.4l-1.8-1C1727.2,1743.7,1729.3,1815.9,1730,1818.8z"/>
		</g>
		<g>
			<g>
				<path class="st2" d="M1755.2,1665c0,0,7,14.6,2.7,21.2C1753.7,1692.8,1750.2,1674.1,1755.2,1665z"/>
				<path class="st2" d="M1759.6,1726.8c0,0-7-14.6-2.7-21.2C1761.1,1699,1764.6,1717.8,1759.6,1726.8z"/>
			</g>
			<g>
				<path class="st2" d="M1741.2,1669.5c0,0,12.9,9.8,12.2,17.6C1752.7,1694.8,1740.9,1679.8,1741.2,1669.5z"/>
				<path class="st2" d="M1773.6,1722.3c0,0-12.9-9.8-12.2-17.6C1762.1,1697,1773.9,1712,1773.6,1722.3z"/>
			</g>
			<g>
				<path class="st2" d="M1731,1680c0,0,16,2.8,18.8,10.1C1752.7,1697.4,1735.4,1689.4,1731,1680z"/>
				<path class="st2" d="M1783.8,1712.4c0,0-16-2.8-18.8-10.1C1762.1,1695,1779.4,1703.1,1783.8,1712.4z"/>
			</g>
			<g>
				<path class="st2" d="M1727.7,1705.7c0,0,12.8-10,20.1-7.2C1755.1,1701.2,1737.6,1708.7,1727.7,1705.7z"/>
				<path class="st2" d="M1788.3,1693.3c0,0-14.3,7.6-21.1,3.7C1760.5,1693,1779,1688.7,1788.3,1693.3z"/>
			</g>
			<g>
				<path class="st2" d="M1734.8,1716.8c0,0,8-14.1,15.8-14.4C1758.3,1702.1,1745,1715.7,1734.8,1716.8z"/>
				<path class="st2" d="M1782.8,1677.7c0,0-8,14.1-15.8,14.4C1759.2,1692.5,1772.5,1678.8,1782.8,1677.7z"/>
			</g>
			<g>
				<path class="st2" d="M1745.2,1725.2c0,0,1-16.2,8-19.8C1760.1,1701.7,1754,1719.7,1745.2,1725.2z"/>
				<path class="st2" d="M1771.5,1669.1c0,0-1,16.2-8,19.8C1756.7,1692.6,1762.8,1674.6,1771.5,1669.1z"/>
			</g>
			<path class="st2" d="M1726.9,1695.3c0,0,15.2-5.8,21.4-1C1754.4,1699,1735.5,1701,1726.9,1695.3z"/>
			<circle class="st7" cx="1757.4" cy="1696.2" r="11.3"/>
		</g>
		<path class="st6" d="M1733.9,1753.7c0,0,9.8-10,23.4-10.7c13.5-0.7,17.7,0,17.7,0s-8.3,8.8-18.3,10.7
			C1746.8,1755.6,1733.9,1753.7,1733.9,1753.7z"/>
		<path class="st6" d="M1736,1744c-1.7-1.5-3-13.7-13.5-16.7c-10.5-3-18-3.6-18-3.6s9.1,15.8,15.7,18.2
			C1726.9,1744.2,1736,1744,1736,1744z"/>
		<g>
			<path class="st6" d="M1693.7,1818.8l2-0.5c-0.8-3.8-2.8-80.3,19.4-124.9l-1.8-1C1690.8,1737.5,1692.9,1815.6,1693.7,1818.8z"/>
		</g>
		<g>
			<g>
				<path class="st2" d="M1718.9,1652.4c0,0,7,15.8,2.7,22.9C1717.4,1682.5,1713.9,1662.2,1718.9,1652.4z"/>
				<path class="st2" d="M1723.2,1719.3c0,0-7-15.8-2.7-22.9C1724.8,1689.2,1728.3,1709.5,1723.2,1719.3z"/>
			</g>
			<g>
				<path class="st2" d="M1704.9,1657.3c0,0,12.9,10.6,12.2,19C1716.3,1684.7,1704.6,1668.5,1704.9,1657.3z"/>
				<path class="st2" d="M1737.2,1714.4c0,0-12.9-10.6-12.2-19C1725.8,1687,1737.5,1703.2,1737.2,1714.4z"/>
			</g>
			<g>
				<path class="st2" d="M1694.7,1668.7c0,0,16,3.1,18.8,10.9C1716.4,1687.5,1699.1,1678.8,1694.7,1668.7z"/>
				<path class="st2" d="M1747.4,1703.7c0,0-16-3.1-18.8-10.9C1725.7,1684.9,1743,1693.6,1747.4,1703.7z"/>
			</g>
			<g>
				<path class="st2" d="M1691.4,1696.4c0,0,12.8-10.8,20.1-7.8C1718.8,1691.6,1701.3,1699.6,1691.4,1696.4z"/>
				<path class="st2" d="M1751.9,1683c0,0-14.3,8.3-21.1,4C1724.1,1682.7,1742.7,1678,1751.9,1683z"/>
			</g>
			<g>
				<path class="st2" d="M1698.4,1708.5c0,0,8-15.3,15.8-15.6C1722,1692.5,1708.7,1707.3,1698.4,1708.5z"/>
				<path class="st2" d="M1746.4,1666.2c0,0-8,15.3-15.8,15.6C1722.8,1682.1,1736.1,1667.3,1746.4,1666.2z"/>
			</g>
			<g>
				<path class="st2" d="M1708.9,1717.5c0,0,1-17.5,8-21.5C1723.8,1692.1,1717.7,1711.6,1708.9,1717.5z"/>
				<path class="st2" d="M1735.2,1656.9c0,0-1,17.5-8,21.5C1720.3,1682.3,1726.4,1662.7,1735.2,1656.9z"/>
			</g>
			<path class="st2" d="M1690.5,1685.1c0,0,15.2-6.3,21.4-1.1C1718.1,1689.2,1699.2,1691.3,1690.5,1685.1z"/>
			<path class="st7" d="M1732.3,1686.2c0-6.7-5.1-12.2-11.3-12.2c-6.2,0-11.3,5.5-11.3,12.2c0,6.7,5.1,12.2,11.3,12.2
				C1727.3,1698.4,1732.3,1692.9,1732.3,1686.2z"/>
		</g>
		<path class="st6" d="M1694.4,1779.2c0,0,9.8-10.8,23.4-11.5c13.5-0.7,17.7,0,17.7,0s-8.3,9.5-18.3,11.5
			C1707.3,1781.2,1694.4,1779.2,1694.4,1779.2z"/>
		<path class="st6" d="M1696.4,1768.7c-1.7-1.6-3-14.8-13.5-18.1c-10.5-3.3-18-3.9-18-3.9s9.1,17.1,15.7,19.7
			C1687.3,1769,1696.4,1768.7,1696.4,1768.7z"/>
		<g>
			<path class="st6" d="M1741,1818.8l1.4-0.4c-0.6-2.5-1.9-52.4,13.7-81.5l-1.3-0.7C1739,1765.8,1740.5,1816.7,1741,1818.8z"/>
		</g>
		<g>
			<g>
				<path class="st2" d="M1758.8,1710.2c0,0,4.9,10.3,1.9,15C1757.7,1729.8,1755.2,1716.6,1758.8,1710.2z"/>
				<path class="st2" d="M1761.8,1753.8c0,0-4.9-10.3-1.9-15C1762.9,1734.2,1765.4,1747.4,1761.8,1753.8z"/>
			</g>
			<g>
				<path class="st2" d="M1748.9,1713.4c0,0,9.1,6.9,8.6,12.4C1757,1731.3,1748.7,1720.7,1748.9,1713.4z"/>
				<path class="st2" d="M1771.7,1750.7c0,0-9.1-6.9-8.6-12.4C1763.6,1732.8,1771.9,1743.4,1771.7,1750.7z"/>
			</g>
			<g>
				<path class="st2" d="M1741.7,1720.8c0,0,11.3,2,13.3,7.1C1757,1733.1,1744.8,1727.4,1741.7,1720.8z"/>
				<path class="st2" d="M1778.9,1743.7c0,0-11.3-2-13.3-7.1C1763.6,1731.4,1775.8,1737.1,1778.9,1743.7z"/>
			</g>
			<g>
				<path class="st2" d="M1739.3,1738.9c0,0,9-7,14.2-5.1C1758.7,1735.8,1746.3,1741,1739.3,1738.9z"/>
				<path class="st2" d="M1782.1,1730.2c0,0-10.1,5.4-14.9,2.6C1762.5,1730,1775.6,1726.9,1782.1,1730.2z"/>
			</g>
			<g>
				<path class="st2" d="M1744.3,1746.8c0,0,5.6-10,11.1-10.2C1761,1736.4,1751.6,1746,1744.3,1746.8z"/>
				<path class="st2" d="M1778.2,1719.2c0,0-5.6,10-11.1,10.2C1761.6,1729.6,1771,1719.9,1778.2,1719.2z"/>
			</g>
			<g>
				<path class="st2" d="M1751.7,1752.7c0,0,0.7-11.4,5.6-14C1762.2,1736.1,1757.9,1748.8,1751.7,1752.7z"/>
				<path class="st2" d="M1770.3,1713.1c0,0-0.7,11.4-5.6,14C1759.8,1729.7,1764.1,1716.9,1770.3,1713.1z"/>
			</g>
			<path class="st2" d="M1738.8,1731.6c0,0,10.7-4.1,15.1-0.7C1758.2,1734.2,1744.8,1735.6,1738.8,1731.6z"/>
			<path class="st7" d="M1768.3,1732.2c0-4.4-3.6-8-8-8s-8,3.6-8,8c0,4.4,3.6,8,8,8S1768.3,1736.7,1768.3,1732.2z"/>
		</g>
		<path class="st6" d="M1741.5,1793c0,0,6.9-7.1,16.5-7.5c9.6-0.5,12.5,0,12.5,0s-5.9,6.2-12.9,7.5
			C1750.6,1794.3,1741.5,1793,1741.5,1793z"/>
		<path class="st6" d="M1742.9,1786.1c-1.2-1.1-2.1-9.7-9.5-11.8c-7.4-2.2-12.7-2.6-12.7-2.6s6.4,11.2,11.1,12.9
			C1736.5,1786.3,1742.9,1786.1,1742.9,1786.1z"/>
		<g>
			<path class="st6" d="M1791.8,1818.8l1-0.3c-0.4-1.8-1.4-37.7,9.9-58.7l-0.9-0.5C1790.4,1780.6,1791.4,1817.3,1791.8,1818.8z"/>
		</g>
		<g>
			<g>
				<path class="st2" d="M1804.6,1740.6c0,0,3.5,7.4,1.4,10.8C1803.9,1754.7,1802.1,1745.2,1804.6,1740.6z"/>
				<path class="st2" d="M1806.8,1772c0,0-3.5-7.4-1.4-10.8C1807.6,1757.9,1809.4,1767.4,1806.8,1772z"/>
			</g>
			<g>
				<path class="st2" d="M1797.5,1742.9c0,0,6.6,5,6.2,8.9C1803.3,1755.8,1797.4,1748.1,1797.5,1742.9z"/>
				<path class="st2" d="M1813.9,1769.7c0,0-6.6-5-6.2-8.9C1808.1,1756.9,1814.1,1764.5,1813.9,1769.7z"/>
			</g>
			<g>
				<path class="st2" d="M1792.3,1748.2c0,0,8.1,1.4,9.6,5.1C1803.3,1757.1,1794.6,1753,1792.3,1748.2z"/>
				<path class="st2" d="M1819.1,1764.7c0,0-8.1-1.4-9.6-5.1C1808.1,1755.9,1816.9,1760,1819.1,1764.7z"/>
			</g>
			<g>
				<path class="st2" d="M1790.6,1761.3c0,0,6.5-5.1,10.2-3.7C1804.6,1759,1795.7,1762.8,1790.6,1761.3z"/>
				<path class="st2" d="M1821.4,1755c0,0-7.3,3.9-10.7,1.9C1807.3,1754.9,1816.7,1752.7,1821.4,1755z"/>
			</g>
			<g>
				<path class="st2" d="M1794.2,1767c0,0,4-7.2,8-7.3C1806.2,1759.5,1799.5,1766.4,1794.2,1767z"/>
				<path class="st2" d="M1818.6,1747.1c0,0-4,7.2-8,7.3C1806.6,1754.6,1813.4,1747.6,1818.6,1747.1z"/>
			</g>
			<g>
				<path class="st2" d="M1799.5,1771.2c0,0,0.5-8.2,4-10.1C1807.1,1759.3,1804,1768.4,1799.5,1771.2z"/>
				<path class="st2" d="M1812.9,1742.7c0,0-0.5,8.2-4,10.1C1805.4,1754.6,1808.5,1745.5,1812.9,1742.7z"/>
			</g>
			<path class="st2" d="M1790.2,1756c0,0,7.7-2.9,10.9-0.5C1804.2,1757.9,1794.6,1758.9,1790.2,1756z"/>
			<circle class="st7" cx="1805.7" cy="1756.5" r="5.7"/>
		</g>
		<path class="st6" d="M1793.8,1785.7c0,0,5-5.1,11.9-5.4c6.9-0.3,9,0,9,0s-4.2,4.5-9.3,5.4
			C1800.3,1786.6,1793.8,1785.7,1793.8,1785.7z"/>
		<path class="st6" d="M1794.8,1780.8c-0.9-0.8-1.5-7-6.9-8.5c-5.3-1.6-9.1-1.8-9.1-1.8s4.6,8,8,9.3
			C1790.2,1780.9,1794.8,1780.8,1794.8,1780.8z"/>
		<g>
			<path class="st6" d="M1764.8,1818.8l1.2-0.3c-0.5-2.1-1.6-44.4,11.6-69l-1.1-0.6C1763.1,1773.9,1764.4,1817.1,1764.8,1818.8z"/>
		</g>
		<g>
			<g>
				<path class="st2" d="M1779.9,1726.8c0,0,4.2,8.8,1.6,12.7C1779,1743.4,1776.9,1732.2,1779.9,1726.8z"/>
				<path class="st2" d="M1782.5,1763.7c0,0-4.2-8.8-1.6-12.7C1783.4,1747.1,1785.5,1758.3,1782.5,1763.7z"/>
			</g>
			<g>
				<path class="st2" d="M1771.5,1729.5c0,0,7.7,5.9,7.3,10.5C1778.4,1744.6,1771.4,1735.7,1771.5,1729.5z"/>
				<path class="st2" d="M1790.9,1761.1c0,0-7.7-5.9-7.3-10.5C1784,1745.9,1791.1,1754.9,1790.9,1761.1z"/>
			</g>
			<g>
				<path class="st2" d="M1765.4,1735.8c0,0,9.6,1.7,11.3,6.1C1778.4,1746.2,1768.1,1741.4,1765.4,1735.8z"/>
				<path class="st2" d="M1797,1755.2c0,0-9.6-1.7-11.3-6.1C1784,1744.8,1794.3,1749.6,1797,1755.2z"/>
			</g>
			<g>
				<path class="st2" d="M1763.4,1751.1c0,0,7.7-6,12-4.3C1779.9,1748.4,1769.4,1752.9,1763.4,1751.1z"/>
				<path class="st2" d="M1799.7,1743.7c0,0-8.6,4.6-12.6,2.2C1783.1,1743.6,1794.2,1741,1799.7,1743.7z"/>
			</g>
			<g>
				<path class="st2" d="M1767.7,1757.8c0,0,4.8-8.5,9.4-8.6C1781.8,1749,1773.8,1757.1,1767.7,1757.8z"/>
				<path class="st2" d="M1796.4,1734.4c0,0-4.8,8.5-9.4,8.6C1782.3,1743.2,1790.2,1735,1796.4,1734.4z"/>
			</g>
			<g>
				<path class="st2" d="M1773.9,1762.8c0,0,0.6-9.7,4.8-11.9C1782.8,1748.7,1779.2,1759.5,1773.9,1762.8z"/>
				<path class="st2" d="M1789.7,1729.2c0,0-0.6,9.7-4.8,11.9C1780.8,1743.3,1784.4,1732.5,1789.7,1729.2z"/>
			</g>
			<path class="st2" d="M1763,1744.9c0,0,9.1-3.5,12.8-0.6C1779.4,1747.1,1768.1,1748.3,1763,1744.9z"/>
			<path class="st7" d="M1788,1745.5c0-3.7-3-6.8-6.8-6.8s-6.8,3-6.8,6.8c0,3.7,3,6.8,6.8,6.8S1788,1749.2,1788,1745.5z"/>
		</g>
		<path class="st6" d="M1765.3,1796.9c0,0,5.9-6,14-6.4c8.1-0.4,10.6,0,10.6,0s-5,5.3-10.9,6.4
			C1773,1798,1765.3,1796.9,1765.3,1796.9z"/>
		<path class="st6" d="M1766.5,1791.1c-1-0.9-1.8-8.2-8.1-10c-6.3-1.8-10.7-2.2-10.7-2.2s5.4,9.5,9.4,10.9
			C1761,1791.2,1766.5,1791.1,1766.5,1791.1z"/>
		<g>
			<path class="st6" d="M1797.4,1818.8l0.7-0.2c-0.3-1.3-1-26.6,7-41.4l-0.6-0.3C1796.4,1791.8,1797.1,1817.8,1797.4,1818.8z"/>
		</g>
		<g>
			<g>
				<path class="st2" d="M1806.4,1763.6c0,0,2.5,5.3,1,7.6C1805.9,1773.6,1804.6,1766.8,1806.4,1763.6z"/>
				<path class="st2" d="M1808,1785.8c0,0-2.5-5.3-1-7.6C1808.5,1775.8,1809.8,1782.5,1808,1785.8z"/>
			</g>
			<g>
				<path class="st2" d="M1801.4,1765.2c0,0,4.6,3.5,4.4,6.3C1805.5,1774.3,1801.3,1768.9,1801.4,1765.2z"/>
				<path class="st2" d="M1813,1784.2c0,0-4.6-3.5-4.4-6.3C1808.9,1775.1,1813.1,1780.4,1813,1784.2z"/>
			</g>
			<g>
				<path class="st2" d="M1797.7,1769c0,0,5.7,1,6.8,3.6C1805.5,1775.2,1799.3,1772.3,1797.7,1769z"/>
				<path class="st2" d="M1816.7,1780.6c0,0-5.7-1-6.8-3.6C1808.9,1774.4,1815.1,1777.3,1816.7,1780.6z"/>
			</g>
			<g>
				<path class="st2" d="M1796.6,1778.2c0,0,4.6-3.6,7.2-2.6C1806.4,1776.6,1800.1,1779.3,1796.6,1778.2z"/>
				<path class="st2" d="M1818.3,1773.7c0,0-5.1,2.7-7.6,1.3C1808.3,1773.6,1815,1772.1,1818.3,1773.7z"/>
			</g>
			<g>
				<path class="st2" d="M1799.1,1782.2c0,0,2.9-5.1,5.7-5.2C1807.6,1776.9,1802.8,1781.8,1799.1,1782.2z"/>
				<path class="st2" d="M1816.3,1768.1c0,0-2.9,5.1-5.7,5.2C1807.9,1773.4,1812.6,1768.5,1816.3,1768.1z"/>
			</g>
			<g>
				<path class="st2" d="M1802.8,1785.2c0,0,0.4-5.8,2.9-7.1C1808.2,1776.7,1806,1783.2,1802.8,1785.2z"/>
				<path class="st2" d="M1812.3,1765.1c0,0-0.4,5.8-2.9,7.1C1807,1773.5,1809.1,1767,1812.3,1765.1z"/>
			</g>
			<path class="st2" d="M1796.3,1774.4c0,0,5.4-2.1,7.7-0.4C1806.2,1775.8,1799.4,1776.5,1796.3,1774.4z"/>
			<path class="st7" d="M1811.3,1774.8c0-2.2-1.8-4.1-4.1-4.1c-2.2,0-4.1,1.8-4.1,4.1c0,2.2,1.8,4.1,4.1,4.1
				C1809.5,1778.8,1811.3,1777,1811.3,1774.8z"/>
		</g>
		<path class="st6" d="M1797.6,1805.7c0,0,3.5-3.6,8.4-3.8c4.9-0.2,6.4,0,6.4,0s-3,3.2-6.6,3.8
			C1802.3,1806.3,1797.6,1805.7,1797.6,1805.7z"/>
		<path class="st6" d="M1798.4,1802.2c-0.6-0.5-1.1-4.9-4.8-6c-3.8-1.1-6.4-1.3-6.4-1.3s3.3,5.7,5.6,6.5
			C1795.1,1802.3,1798.4,1802.2,1798.4,1802.2z"/>
		<g>
			<path class="st6" d="M1836.6,1818.8l1.2-0.3c-0.5-2.1-1.6-44.4,11.6-69l-1.1-0.6C1834.9,1773.9,1836.2,1817.1,1836.6,1818.8z"/>
		</g>
		<g>
			<g>
				<path class="st2" d="M1851.7,1726.8c0,0,4.2,8.8,1.6,12.7C1850.8,1743.4,1848.7,1732.2,1851.7,1726.8z"/>
				<path class="st2" d="M1854.3,1763.7c0,0-4.2-8.8-1.6-12.7C1855.2,1747.1,1857.3,1758.3,1854.3,1763.7z"/>
			</g>
			<g>
				<path class="st2" d="M1843.4,1729.5c0,0,7.7,5.9,7.3,10.5C1850.2,1744.6,1843.2,1735.7,1843.4,1729.5z"/>
				<path class="st2" d="M1862.7,1761.1c0,0-7.7-5.9-7.3-10.5C1855.8,1745.9,1862.9,1754.9,1862.7,1761.1z"/>
			</g>
			<g>
				<path class="st2" d="M1837.2,1735.8c0,0,9.6,1.7,11.3,6.1C1850.2,1746.2,1839.9,1741.4,1837.2,1735.8z"/>
				<path class="st2" d="M1868.8,1755.2c0,0-9.6-1.7-11.3-6.1C1855.8,1744.8,1866.2,1749.6,1868.8,1755.2z"/>
			</g>
			<g>
				<path class="st2" d="M1835.3,1751.1c0,0,7.7-6,12-4.3C1851.7,1748.4,1841.2,1752.9,1835.3,1751.1z"/>
				<path class="st2" d="M1871.5,1743.7c0,0-8.6,4.6-12.6,2.2C1854.9,1743.6,1866,1741,1871.5,1743.7z"/>
			</g>
			<g>
				<path class="st2" d="M1839.5,1757.8c0,0,4.8-8.5,9.4-8.6C1853.6,1749,1845.6,1757.1,1839.5,1757.8z"/>
				<path class="st2" d="M1868.2,1734.4c0,0-4.8,8.5-9.4,8.6C1854.1,1743.2,1862,1735,1868.2,1734.4z"/>
			</g>
			<g>
				<path class="st2" d="M1845.7,1762.8c0,0,0.6-9.7,4.8-11.9C1854.6,1748.7,1851,1759.5,1845.7,1762.8z"/>
				<path class="st2" d="M1861.5,1729.2c0,0-0.6,9.7-4.8,11.9C1852.6,1743.3,1856.2,1732.5,1861.5,1729.2z"/>
			</g>
			<path class="st2" d="M1834.8,1744.9c0,0,9.1-3.5,12.8-0.6S1839.9,1748.3,1834.8,1744.9z"/>
			<path class="st7" d="M1859.8,1745.5c0-3.7-3-6.8-6.8-6.8c-3.7,0-6.8,3-6.8,6.8c0,3.7,3,6.8,6.8,6.8
				C1856.7,1752.2,1859.8,1749.2,1859.8,1745.5z"/>
		</g>
		<path class="st6" d="M1839,1779.8c0,0,5.9-6,14-6.4c8.1-0.4,10.6,0,10.6,0s-5,5.3-10.9,6.4C1846.7,1781,1839,1779.8,1839,1779.8z"
			/>
		<path class="st6" d="M1840.2,1774c-1-0.9-1.8-8.2-8.1-10c-6.3-1.8-10.7-2.2-10.7-2.2s5.4,9.5,9.4,10.9S1840.2,1774,1840.2,1774z"
			/>
		<g>
			<path class="st6" d="M1814.9,1818.8l1.2-0.3c-0.5-2.3-1.6-48,11.6-74.7l-1.1-0.6C1813.2,1770.2,1814.4,1816.9,1814.9,1818.8z"/>
		</g>
		<g>
			<g>
				<path class="st2" d="M1830,1719.3c0,0,4.2,9.5,1.6,13.7C1829.1,1737.2,1827,1725.1,1830,1719.3z"/>
				<path class="st2" d="M1832.6,1759.2c0,0-4.2-9.5-1.6-13.7C1833.5,1741.3,1835.6,1753.4,1832.6,1759.2z"/>
			</g>
			<g>
				<path class="st2" d="M1821.6,1722.2c0,0,7.7,6.3,7.3,11.4C1828.4,1738.6,1821.4,1728.8,1821.6,1722.2z"/>
				<path class="st2" d="M1840.9,1756.3c0,0-7.7-6.3-7.3-11.4C1834.1,1739.9,1841.1,1749.7,1840.9,1756.3z"/>
			</g>
			<g>
				<path class="st2" d="M1815.5,1729c0,0,9.6,1.8,11.3,6.6C1828.5,1740.2,1818.1,1735,1815.5,1729z"/>
				<path class="st2" d="M1847.1,1749.9c0,0-9.6-1.8-11.3-6.6C1834.1,1738.7,1844.4,1743.9,1847.1,1749.9z"/>
			</g>
			<g>
				<path class="st2" d="M1813.5,1745.6c0,0,7.7-6.5,12-4.7C1829.9,1742.7,1819.4,1747.5,1813.5,1745.6z"/>
				<path class="st2" d="M1849.8,1737.6c0,0-8.6,4.9-12.6,2.4C1833.1,1737.4,1844.2,1734.6,1849.8,1737.6z"/>
			</g>
			<g>
				<path class="st2" d="M1817.7,1752.8c0,0,4.8-9.2,9.4-9.3C1831.8,1743.3,1823.9,1752.1,1817.7,1752.8z"/>
				<path class="st2" d="M1846.4,1727.5c0,0-4.8,9.2-9.4,9.3C1832.3,1737,1840.3,1728.2,1846.4,1727.5z"/>
			</g>
			<g>
				<path class="st2" d="M1824,1758.2c0,0,0.6-10.5,4.8-12.8C1832.9,1743,1829.3,1754.7,1824,1758.2z"/>
				<path class="st2" d="M1839.7,1721.9c0,0-0.6,10.5-4.8,12.8C1830.8,1737.1,1834.5,1725.4,1839.7,1721.9z"/>
			</g>
			<path class="st2" d="M1813,1738.8c0,0,9.1-3.7,12.8-0.7C1829.5,1741.2,1818.2,1742.5,1813,1738.8z"/>
			<path class="st7" d="M1838,1739.5c0-4-3-7.3-6.8-7.3c-3.7,0-6.8,3.3-6.8,7.3s3,7.3,6.8,7.3C1835,1746.8,1838,1743.5,1838,1739.5z
				"/>
		</g>
		<path class="st6" d="M1815.3,1795.1c0,0,5.9-6.5,14-6.9c8.1-0.4,10.6,0,10.6,0s-5,5.7-10.9,6.9
			C1823,1796.3,1815.3,1795.1,1815.3,1795.1z"/>
		<path class="st6" d="M1816.5,1788.8c-1-1-1.8-8.9-8.1-10.8c-6.3-2-10.7-2.4-10.7-2.4s5.4,10.2,9.4,11.8
			C1811.1,1789,1816.5,1788.8,1816.5,1788.8z"/>
		<g>
			<path class="st6" d="M1843.2,1818.8l0.8-0.2c-0.3-1.5-1.2-31.3,8.2-48.8l-0.8-0.4C1842,1787.1,1842.9,1817.6,1843.2,1818.8z"/>
		</g>
		<g>
			<g>
				<path class="st2" d="M1853.8,1753.8c0,0,2.9,6.2,1.2,9C1853.2,1765.6,1851.7,1757.6,1853.8,1753.8z"/>
				<path class="st2" d="M1855.7,1779.9c0,0-2.9-6.2-1.2-9C1856.3,1768.2,1857.8,1776.1,1855.7,1779.9z"/>
			</g>
			<g>
				<path class="st2" d="M1847.9,1755.7c0,0,5.5,4.1,5.1,7.4C1852.8,1766.4,1847.8,1760.1,1847.9,1755.7z"/>
				<path class="st2" d="M1861.6,1778c0,0-5.5-4.1-5.1-7.4C1856.8,1767.3,1861.7,1773.7,1861.6,1778z"/>
			</g>
			<g>
				<path class="st2" d="M1843.6,1760.2c0,0,6.7,1.2,8,4.3C1852.8,1767.5,1845.5,1764.1,1843.6,1760.2z"/>
				<path class="st2" d="M1865.9,1773.9c0,0-6.7-1.2-8-4.3C1856.7,1766.5,1864,1769.9,1865.9,1773.9z"/>
			</g>
			<g>
				<path class="st2" d="M1842.2,1771c0,0,5.4-4.2,8.5-3.1C1853.8,1769.1,1846.4,1772.3,1842.2,1771z"/>
				<path class="st2" d="M1867.8,1765.8c0,0-6,3.2-8.9,1.6C1856.1,1765.7,1863.9,1763.8,1867.8,1765.8z"/>
			</g>
			<g>
				<path class="st2" d="M1845.2,1775.7c0,0,3.4-6,6.7-6.1C1855.2,1769.5,1849.5,1775.3,1845.2,1775.7z"/>
				<path class="st2" d="M1865.5,1759.2c0,0-3.4,6-6.7,6.1C1855.5,1765.4,1861.1,1759.7,1865.5,1759.2z"/>
			</g>
			<g>
				<path class="st2" d="M1849.6,1779.2c0,0,0.4-6.8,3.4-8.4C1855.9,1769.3,1853.3,1776.9,1849.6,1779.2z"/>
				<path class="st2" d="M1860.7,1755.6c0,0-0.4,6.8-3.4,8.4C1854.5,1765.5,1857,1757.9,1860.7,1755.6z"/>
			</g>
			<path class="st2" d="M1841.9,1766.6c0,0,6.4-2.4,9-0.4C1853.5,1768.2,1845.5,1769,1841.9,1766.6z"/>
			<path class="st7" d="M1859.5,1767c0-2.6-2.1-4.8-4.8-4.8c-2.6,0-4.8,2.1-4.8,4.8s2.1,4.8,4.8,4.8
				C1857.4,1771.8,1859.5,1769.6,1859.5,1767z"/>
		</g>
		<path class="st6" d="M1843.5,1803.3c0,0,4.1-4.2,9.9-4.5c5.7-0.3,7.5,0,7.5,0s-3.5,3.7-7.7,4.5
			C1848.9,1804.1,1843.5,1803.3,1843.5,1803.3z"/>
		<path class="st6" d="M1844.4,1799.2c-0.7-0.6-1.3-5.8-5.7-7.1c-4.4-1.3-7.6-1.5-7.6-1.5s3.8,6.7,6.6,7.7
			C1840.5,1799.3,1844.4,1799.2,1844.4,1799.2z"/>
	</g>
	<g>
		<g>
			<path class="st8" d="M469.5,1368.1v455.7H369c0-0.1-0.1-0.3-0.2-0.5c0-0.1-0.1-0.2-0.1-0.3c-0.3-0.9-0.8-2.1-1.3-3.6l-0.2-0.4
				c0,0,0,0,0-0.2c0,0-0.2-0.2-0.2-0.5c-0.9-1.8-1.6-3.8-2.5-6.3c-0.5-1.1-0.9-2.5-1.6-3.8c0-0.2,0-0.2,0-0.5
				c-0.2-0.2-0.2-0.2-0.2-0.2c-3.1-8-6.9-18.5-11.3-31.1c-0.4-1.1-0.8-2.3-1.2-3.5c-3.3-9.5-7-20.2-10.8-32
				c-1.8-5.5-3.6-11.3-5.5-17.3c-7.8-24.9-16.3-53.7-24.6-85.4c-4-15.5-8.1-31.7-11.9-48.6c-2.3-9.7-4.5-19.9-6.7-30.1
				c-0.6-3-1.2-6-1.9-9c-4-19.2-7.7-38.9-11.1-59.1c-4.4-26.5-8.3-53.7-11.2-81.4c-1.4-13.6-2.7-27.2-3.6-41c0-0.4-0.1-0.7-0.1-1.1
				H469.5z"/>
			<polygon class="st9" points="386.9,1178.8 493.4,1398 816.9,1398 648.2,1179.6 			"/>
			<polygon class="st10" points="804.1,1398 794.5,1385.6 635.5,1179.6 374.1,1178.8 469.5,1375.1 469.5,1823.7 794.5,1823.7 
				794.5,1398 			"/>
			<path class="st11" d="M634.5,1288.4h2.9c24.2,0,43.8,19.6,43.8,43.8v104.2h-89v-105.6C592.1,1307.4,611.1,1288.4,634.5,1288.4z"
				/>
			<path class="st9" d="M649.1,1178.8l-0.7,1l-6.3,8.4L490,1390.9l-14.4,19.2H266.5c-1.4-13.6-2.7-27.2-3.6-41
				c0-0.4-0.1-0.7-0.1-1.1c0-0.4-0.1-0.7-0.1-1.1c-1.3-19.4-2.2-38.9-2.4-58.4l100.2-129.8H403l148.4,0L649.1,1178.8z"/>
		</g>
		<g>
			<polygon class="st9" points="670.7,1459.2 746.6,1615.3 976.9,1615.3 856.8,1459.8 			"/>
			<g>
				<polygon class="st10" points="970,1615.3 849.9,1459.8 663.8,1459.2 739.7,1615.3 740.2,1615.3 740.2,1823.3 970,1823.8 
					970,1615.3 				"/>
				<rect x="545.5" y="1615.3" class="st8" width="194.6" height="208"/>
				<polygon class="st9" points="524.2,1624.5 733.2,1624.5 856.8,1459.8 794.5,1459.8 651.3,1459.8 				"/>
				<path class="st11" d="M808.4,1650v173.8h96.8v-172.2c0-14.3-6.1-27.3-15.9-36.2c-8.8-8.1-20.4-13-33.3-13
					c-12.6,0-24.1,4.9-32.6,13C814.1,1624,808.4,1636.3,808.4,1650z"/>
				<path class="st11" d="M867.7,1546.4c0-6-4.9-10.9-10.9-10.9c-6,0-10.9,4.9-10.9,10.9c0,6,4.9,10.9,10.9,10.9
					C862.8,1557.3,867.7,1552.4,867.7,1546.4z"/>
				<polygon class="st12" points="524.2,1624.5 563.8,1624.5 794.5,1459.8 651.3,1459.8 				"/>
			</g>
		</g>
	</g>
	<g>
		<polygon class="st13" points="487.7,1332.5 296.6,1332.5 397.4,1208.9 588.5,1208.9 		"/>
		<g>
			<polygon class="st14" points="562.5,1241.4 371.4,1241.4 372.6,1240 563.7,1240 			"/>
			<polygon class="st14" points="442.3,1208.9 341.5,1332.5 340.1,1332.5 440.9,1208.9 			"/>
			<polygon class="st14" points="493,1208.9 392.2,1332.5 390.7,1332.5 491.5,1208.9 			"/>
			<polygon class="st14" points="541.7,1208.9 440.9,1332.5 439.4,1332.5 540.2,1208.9 			"/>
			<polygon class="st14" points="537.5,1271.4 346.4,1271.4 347.6,1270 538.7,1270 			"/>
			<polygon class="st14" points="511.1,1303.8 320.1,1303.8 321.2,1302.3 512.3,1302.3 			"/>
			<g>
				<polygon class="st14" points="410.5,1246.8 409.4,1240.8 420.2,1234.9 421.3,1240.8 				"/>
				<polygon class="st14" points="460.6,1246.8 459.5,1240.8 470.3,1234.9 471.4,1240.8 				"/>
				<polygon class="st14" points="510,1246.8 508.9,1240.8 519.8,1234.9 520.9,1240.8 				"/>
			</g>
			<g>
				<polygon class="st14" points="386.2,1276.6 385.1,1270.7 395.9,1264.7 397,1270.7 				"/>
				<polygon class="st14" points="436.2,1276.6 435.1,1270.7 446,1264.7 447.1,1270.7 				"/>
				<polygon class="st14" points="485.7,1276.6 484.6,1270.7 495.4,1264.7 496.5,1270.7 				"/>
			</g>
			<g>
				<polygon class="st14" points="359.8,1309 358.7,1303 369.5,1297.1 370.6,1303 				"/>
				<polygon class="st14" points="409.9,1309 408.8,1303 419.6,1297.1 420.7,1303 				"/>
				<polygon class="st14" points="459.3,1309 458.2,1303 469,1297.1 470.1,1303 				"/>
			</g>
		</g>
	</g>
	<path class="st15" d="M2608.3,787.9c-0.1,4.7-0.2,9.5-0.5,14.3c-1,20.6-3.5,41.9-7.5,63.8l-298.9-3.9c0,0,27.1-63.9,91.8-56.8
		c0,0,93.9-106.5,194.1-14.2C2587.2,791.2,2595.1,789.5,2608.3,787.9z"/>
	<path class="st15" d="M1636,585.2c0,0,14-33.7,47.5-30c0,0,48.6-56.2,100.5-7.5c0,0,55.1-12.1,96,10.5c27.2,15,36.2,30.8,36.2,30.8
		L1636,585.2z"/>
	<path class="st15" d="M509,1075c0,0,15-36,50.8-32c0,0,52-60.1,107.4-8c0,0,58.9-12.9,102.5,11.2c29.1,16,38.7,32.9,38.7,32.9
		L509,1075z"/>
	<path class="st15" d="M431,964.8c0,0,11.5-27.6,38.9-24.5c0,0,39.8-46,82.2-6.1c0,0,45.1-9.9,78.5,8.5
		c22.3,12.3,29.6,25.2,29.6,25.2L431,964.8z"/>
	<path class="st6" d="M2842.9,1660.7c-1.4,14.2-3.8,29.1-7.3,44.6c-0.1,0.3-0.1,0.6-0.2,1c-79,28.6-160.5,66.6-233,116.8h-196.1
		C2434.7,1804.7,2573.2,1728,2842.9,1660.7z"/>
	<g>
		<g>
			<path class="st16" d="M2407.4,1618.9c0,0,150.5-13.2,191.4,0c40.9,13.2,61.4,74.5,55.5,119.3c-5.8,44.8-19.5,82.8-45.8,81.8
				c-26.3-1-212.3,0-212.3,0L2407.4,1618.9z"/>
			<path class="st16" d="M2438.1,1616.6c0,0,31.8-5.9,53.5-8.1c0,0-17,3.5-19.2,5.3c0,0,46.3-7,63.1-5.3c16.9,1.7,40,4.6,40,4.6
				l25.7-1.7c0,0-21.4,2.6-20.3,2.9c1.1,0.3,20.9,2.8,27.3,6.8c0,0,19.6,6.2,23.9,9.9c0,0-15.7-8-21.9-7.5c0,0,35.7,24.7,35.8,48.3
				c0.1,23.6-153.5-35.5-153.5-35.5L2438.1,1616.6z"/>
		</g>
		<g>
			<path class="st2" d="M2428.9,1617.7c0,0-59.9-4.6-97.9,43.7c-38,48.2-7.3,159.8,42.4,160.3c49.7,0.4,110.8-7.2,124.1-72
				C2510.7,1684.8,2482.9,1619.4,2428.9,1617.7z"/>
			<path class="st2" d="M2306.2,1713.9c0,0,21.4-24.7,23.7-31.5l3.2,6.8L2306.2,1713.9z"/>
			<path class="st2" d="M2321.7,1677.4c0,0,2.7-17.7,10.5-24.2c0,0-7.1,11.9-5.3,21.8C2328.8,1684.9,2321.7,1677.4,2321.7,1677.4z"
				/>
			<path class="st2" d="M2332.2,1802.6c0.4,0.9-11.5-32.4-7.6-38.7l2.3,0C2326.8,1763.9,2328.4,1793.3,2332.2,1802.6z"/>
			<path class="st2" d="M2322.6,1759.2c0,0-8.9-2.9-14,0c0,0,8.3-2.3,13.3,2.6C2327,1766.7,2322.6,1759.2,2322.6,1759.2z"/>
		</g>
		<g>
			<path class="st16" d="M2405.2,1820c-13.8,0-30.3-2.3-44.5-11c-15.3-9.4-25.3-24.5-29.7-44.9c-7.5-34.7-3.8-63.2,11-84.7
				c13.8-20.1,37.1-33.1,67.5-37.8c20.5-3.1,38.2,3.5,51.2,19.1c18.9,22.6,24.3,60.8,13.2,92.9c-7.8,22.7-28.8,36.7-56.1,37.5
				c-0.8,0-1.6,0-2.3,0c-27.5,0-52.2-14-60.7-34.7c-8.7-21-8.2-41.6,1.3-57.9c9.6-16.6,27.8-27.4,51.2-30.4
				c21.2-2.7,32.6,7.1,38.4,15.9c11.3,16.9,11.3,44.3,3.7,57.5c-7.3,12.7-27.5,22.6-45,22c-12.6-0.5-22.3-6.3-27.2-16.5
				c-6.3-13.1-5.9-26.6,1.1-37.1c5.6-8.4,14.7-13.6,23.2-13.1c9.7,0.5,13.8,8.6,14.4,15.4c0.5,6-1.5,12.6-6.4,13.7
				c-9.1,2.1-12.3-2.8-12.5-3.1c0,0-4.9-8.1,1.2-9.3c7-1.3,5.2,4.1,5.2,4.1c0.1,0.2-1.7,7.5,5.5,5.8c3-0.7,5-5.6,4.5-11.1
				c-0.5-6-4-12.7-12.1-13.1c-7.6-0.4-15.8,4.3-20.9,12c-6.5,9.7-6.8,22.3-1,34.6c5.7,11.9,16.7,14.8,25,15.1
				c16.7,0.6,35.8-8.7,42.7-20.7c6.4-11.1,8.1-37.4-3.6-54.9c-7.8-11.7-20.3-16.8-36-14.8c-22.6,2.9-40.1,13.2-49.3,29.1
				c-9.1,15.6-9.5,35.4-1.1,55.7c8.3,20.3,33.3,33.9,60.6,33.1c26.2-0.8,46.3-14.1,53.8-35.8c10.8-31.3,5.6-68.5-12.7-90.5
				c-8.7-10.4-24.2-22-48.9-18.3c-29.6,4.5-52.4,17.3-65.8,36.8c-14.4,20.9-17.9,48.7-10.6,82.8c4.3,19.7,13.9,34.3,28.6,43.3
				c29.7,18.2,76.5,7.2,76.9,7.1l-5.3,2.9C2433.4,1816.8,2421.2,1820,2405.2,1820z"/>
		</g>
	</g>
	<g>
		<g>
			<path class="st16" d="M2640.1,1549c0,0,202.3-17.7,257.3,0c55,17.7,82.5,100.2,74.6,160.5c-7.9,60.2-26.2,111.3-61.6,110
				c-35.4-1.3-285.5,0-285.5,0L2640.1,1549z"/>
			<path class="st16" d="M2681.5,1545.9c0,0,42.8-8,72-10.9c0,0-22.9,4.7-25.8,7.1c0,0,62.2-9.4,84.9-7.1
				c22.7,2.3,53.8,6.1,53.8,6.1l34.6-2.3c0,0-28.8,3.5-27.3,3.9c1.5,0.4,28.2,3.7,36.7,9.2c0,0,26.4,8.3,32.1,13.3
				c0,0-21.2-10.7-29.5-10c0,0,48,33.3,48.1,65c0.1,31.7-206.3-47.7-206.3-47.7L2681.5,1545.9z"/>
		</g>
		<g>
			<path class="st2" d="M2669.1,1547.5c0,0-80.5-6.1-131.6,58.7c-51.1,64.8-9.8,214.9,57,215.5c66.8,0.6,149-9.7,166.8-96.9
				C2779.1,1637.6,2741.8,1549.6,2669.1,1547.5z"/>
			<path class="st2" d="M2504.2,1676.8c0,0,28.8-33.2,31.9-42.3l4.4,9.2L2504.2,1676.8z"/>
			<path class="st2" d="M2525,1627.7c0,0,3.7-23.8,14.1-32.5c0,0-9.5,15.9-7.1,29.2C2534.5,1637.7,2525,1627.7,2525,1627.7z"/>
			<path class="st2" d="M2539.1,1796c0.5,1.3-15.5-43.5-10.3-52.1l3,0C2531.9,1743.9,2534,1783.5,2539.1,1796z"/>
			<path class="st2" d="M2526.2,1737.7c0,0-12-3.9-18.8,0c0,0,11.1-3.1,17.9,3.5C2532.1,1747.8,2526.2,1737.7,2526.2,1737.7z"/>
		</g>
		<g>
			<path class="st16" d="M2637.2,1819.4c-18.5,0-40.8-3.1-59.8-14.8c-20.6-12.6-34-32.9-39.9-60.3c-10.1-46.7-5.1-85,14.7-113.9
				c18.6-27,50-44.6,90.7-50.8c27.5-4.2,51.3,4.7,68.9,25.7c25.4,30.4,32.7,81.8,17.7,125c-10.6,30.5-38.7,49.3-75.4,50.4
				c-1,0-2.1,0-3.1,0c-36.9,0-70.2-18.9-81.6-46.6c-11.6-28.3-11-55.9,1.7-77.9c12.9-22.3,37.4-36.8,68.8-40.8
				c28.5-3.7,43.8,9.6,51.7,21.3c15.2,22.7,15.1,59.5,5,77.3c-9.8,17.1-36.9,30.4-60.5,29.5c-17-0.6-30-8.5-36.5-22.1
				c-8.4-17.6-7.9-35.7,1.5-49.8c7.6-11.3,19.8-18.3,31.2-17.6c13,0.7,18.6,11.6,19.4,20.7c0.7,8-2,16.9-8.6,18.5
				c-12.3,2.9-16.6-3.8-16.8-4.1c0,0-6.6-10.9,1.6-12.5c9.4-1.8,6.9,5.5,6.9,5.5c0.1,0.2-2.3,10.1,7.4,7.8c4-0.9,6.7-7.5,6-14.9
				c-0.7-8.1-5.3-17-16.2-17.6c-10.2-0.6-21.2,5.8-28.2,16.1c-8.7,13.1-9.2,30-1.3,46.5c7.7,16,22.5,19.8,33.6,20.2
				c22.4,0.8,48.2-11.7,57.4-27.9c8.6-15,10.9-50.3-4.8-73.8c-10.5-15.7-27.3-22.6-48.4-19.9c-30.4,3.9-53.9,17.8-66.3,39.2
				c-12.2,21-12.7,47.6-1.5,74.9c11.2,27.3,44.8,45.5,81.5,44.5c35.2-1,62.2-19,72.3-48.1c14.6-42.1,7.5-92.2-17.1-121.7
				c-11.7-14-32.6-29.6-65.8-24.5c-39.8,6.1-70.4,23.2-88.5,49.4c-19.3,28.1-24.1,65.5-14.2,111.3c5.7,26.5,18.6,46.1,38.4,58.2
				c39.9,24.4,102.9,9.6,103.4,9.5l-7.1,3.8C2675.1,1815.1,2658.7,1819.4,2637.2,1819.4z"/>
		</g>
	</g>
	<g>
		<path class="st17" d="M1175.4,1627.4c0,0-34.7,134-31.6,144.6s20.6,46.6,20.6,46.6h-16.8c0,0-6.8-3.3-6.5-11.6
			s-23.3-40.7-23.3-40.7s9.2-51.4,0-71.7C1078.1,1607.3,1144.7,1608.1,1175.4,1627.4z"/>
		<path class="st17" d="M1353.8,1673.8c0,0-10,72-10.5,76.4c-0.6,4.4-5.3,10-5,17.2c0.3,7.2,2.8,31.6,10.5,37.6s8.6,13.6,8.6,13.6
			h-21c0,0-3.6-7.2-3-12.2c0.6-5-5.8-10.2-6.1-20.5c-0.3-10.2,0-29.3-2.8-36c-2.8-6.6-1.9-52.3-11.1-62.6
			C1304.2,1677.1,1353.8,1673.8,1353.8,1673.8z"/>
		<path class="st11" d="M1124.9,1649.7c-0.2,3.3-0.3,6.4-0.3,9.5c0.6,77.9,77.7,54.6,80.4,52.5c3-2.1,8.4-1.8,8.4-1.8
			c38.6,15.3,92.6,1.3,103.8-3.3c11.2-4.6,41.1,6.8,54.9,5.7c5.6-0.5,10.3-6.3,13.8-13.6c5-10.4,7.9-23.8,8.4-28.5
			c0.2-2.6,3.8-12.7,8.6-25.1c1.9-4.8,4.1-10.1,6.4-15.4c0.5-0.9,0.8-1.9,1.3-2.9c-1.1-1.3-2.2-2.6-3.2-4c-6.1-8-10.3-17.4-15-26.8
			c-4.8-9.8-10-19.9-17.6-28.9c-11.3-3.5-24.8,2.9-30.4,2.5c-6.5-0.2-12.9-1.4-18.8-2.3c-2.4-0.5-4.6-0.8-6.6-1.1
			c-11.4-1.7-80.8,7.2-129.8,8.6c-10.1,0.3-19.2,0.2-26.9-0.2c-0.6,0-1.1-0.1-1.7-0.1c-20.5-1.1-31.4,0.1-37.1,1.9
			c-6.3,1.9-6.4,4.4-6.4,4.4C1097.4,1599.8,1124.9,1649.7,1124.9,1649.7z"/>
		<path class="st11" d="M1379,1673.8c0,0-10,72-10.5,76.4c-0.6,4.4-5.3,10-5,17.2c0.3,7.2,2.8,31.6,10.5,37.6
			c7.8,6.1,8.6,13.6,8.6,13.6h-21c0,0-3.6-7.2-3-12.2s-5.8-10.2-6.1-20.5c-0.3-10.2,0-29.3-2.8-36c-2.8-6.6-1.9-52.3-11.1-62.6
			C1329.5,1677.1,1379,1673.8,1379,1673.8z"/>
		<path class="st11" d="M1197.1,1657.4c0,0-28,104-24.9,114.6s20.6,46.6,20.6,46.6H1176c0,0-6.8-3.3-6.5-11.6s-23.3-40.7-23.3-40.7
			s-1.9-58.7-15.7-76.2C1116.6,1672.6,1166.3,1638.1,1197.1,1657.4z"/>
		<g>
			<path class="st11" d="M1482.6,1684c1.1,1.5,2.1,2.6,2.1,2.6c0.2-0.1,2.3,0.4,5,0.2c2.2-0.1,4.7-0.5,6.7-1.8
				c1.4-0.9,2.5-2.1,3.3-3.9c0,0-1-2.5-5.9-3.1c-3.7-0.5-7.3-3-10.4-3.4h0c-1.1-0.1-2.2,0.1-3.1,0.7
				C1478,1677,1480.5,1681.2,1482.6,1684z"/>
			<path class="st11" d="M1487.9,1693.7c0.1-0.1,1.9,0.3,4.2,0.3c3.7,0,8.8-0.9,10.8-5.7c0,0-1-2.5-5.9-3.1c-0.2,0-0.4,0-0.5-0.1
				c-3.2-0.6-6.4-2.6-9.1-3.1c-1.4-0.3-2.7-0.2-3.8,0.6c-0.5,0.4-0.8,0.9-0.9,1.5C1482.2,1687.4,1487.9,1693.7,1487.9,1693.7z"/>
			<path class="st11" d="M1373.8,1588.6c1.4,35.7,8,104,12.1,110.1c10.1,0.5,18.2,1.4,24.8,2.7c20.6,4.2,26.3,12,28.3,15.7
				c3.7,7.3,20.8,24,23.8,24.6c3.1,0.6,4.9,4.6,8.1,11.1c3.1,6.4,9.3,7,14.4,7.3c5.1,0.2,9.4-6,9.5-7.4c0.1-1.6-2.6-6.4-2.2-12.8
				c0.3-6.4-3.8-25.5-0.3-30.7c2.2-3.3,0.9-10.4-0.2-15.2c-0.7-2.9-1.4-4.8-1.4-4.8c-0.2-0.7-0.6-1.5-1-2.3c-0.7-1.5-1.5-3.2-2.4-5
				c-1-2.2-2.4-4.6-3.9-7.2c-6.2-11-15.4-25.3-27.6-40.3c-12.1-15.1-27-30.7-44.6-44.4c-11.1-8.7-23.3-16.6-36.5-22.9
				C1373.5,1567.6,1373.3,1576.1,1373.8,1588.6z"/>
		</g>
		<path class="st13" d="M1357.8,1656.1c-0.7-1.8-0.3-33.2-23-39.6c-22.6-6.4-35,3.5-63.2-7.9c-28.2-11.4-57.9-20.8-60.9-8.4
			c-3,12.4,2.5,47,0,62.9c-2.5,15.8,51.1,21.5,73.1,11.7C1305.8,1665,1365.7,1676.4,1357.8,1656.1z"/>
		<path class="st13" d="M1117,1580.8c0,0-14.6,12.5-17.1,34.8c-2.5,22.3,4.5,120.1,4.5,120.1l5.6-0.3l6.1-108.3L1117,1580.8z"/>
		<path class="st13" d="M1110.9,1748.1c0,0-12.2-13.1-4.6-16.1c7.6-3,4.6,5.9,4.6,9.4S1110.9,1748.1,1110.9,1748.1z"/>
		<path class="st18" d="M1123.4,1576.4c14.2,7,29.9,13.4,39.1,13.6c20.3,0.3,69.5-11.3,89.5-12.6c20-1.3,101.2,17.5,120.3,11.4
			c0.5-0.2,0.9-0.2,1.5-0.2c4.2-0.3,10.6,2.6,18.5,7.4c4.5,2.9,9.4,6.3,14.5,10.2c33.3,25.2,76.5,68.4,76.5,68.4
			c-6.2-11-15.4-25.3-27.6-40.3c-12.1-15.1-27-30.7-44.6-44.4c-11.1-8.7-23.3-16.6-36.5-22.9c-11.3-3.5-24.8,2.9-30.4,2.5
			c-6.5-0.2-12.9-1.4-18.8-2.3c-2.4-0.5-4.6-0.8-6.6-1.1c-11.4-1.7-80.8,7.2-129.8,8.6c-10.1,0.3-19.2,0.2-26.9-0.2
			c-0.6,0-1.1-0.1-1.7-0.1C1140,1573.3,1129.1,1574.5,1123.4,1576.4z"/>
		<path class="st13" d="M1189.1,1574.8c8.9,7.2,25.8,10.1,49.9,5.6c29.2-5.4,36.1,7.4,60.4,8.4c21.4,0.9,25.5-17.2,26.1-21.5
			c-2.4-0.4-4.6-0.8-6.7-1.1C1307.4,1564.5,1238,1573.4,1189.1,1574.8z"/>
		<path class="st13" d="M1407.3,1622.8c0.5,2.3,1.1,4.6,1.9,6.9c1,2.5,2.3,4.9,3.8,7.4c12.9,20.6,0.7,45.3-2.3,64.3
			c20.6,4.2,26.3,12,28.3,15.7c3.7,7.3,20.8,24,23.8,24.6c3.1,0.6,4.9,4.6,8.1,11.1c3.1,6.4,9.3,7,14.4,7.3c5.1,0.2,9.4-6,9.5-7.4
			c0.1-1.6-2.6-6.4-2.2-12.8c0.3-6.4-3.8-25.5-0.3-30.7c2.2-3.3,0.9-10.4-0.2-15.2c3.7,0,8.8-0.9,10.9-5.7c0,0-1-2.5-6-3.2h-0.6
			c1.4-0.9,2.5-2.2,3.3-4c0,0-1-2.4-5.9-3.1c-3.7-0.5-7.3-3-10.4-3.3c-6.2-11-15.4-25.3-27.6-40.3c-12.1-15.1-27-30.7-44.6-44.4
			c-1.8,4.6-3.5,10.2-4.3,16.2C1406.2,1611.5,1406.2,1617.2,1407.3,1622.8z"/>
		<path class="st13" d="M1124.9,1649.7c-0.2,3.3-0.3,6.5-0.3,9.5c25.1,18.6,69.2,9.2,72.5-13.2c3.8-25.8-30.9-29.5-28.4-50.8
			c1-8.7-3-15.6-8.3-20.8c-43.1-2.6-43.5,6.3-43.5,6.3C1097.5,1599.9,1124.9,1649.7,1124.9,1649.7z"/>
	</g>
	<g>
		<path class="st19" d="M1786.7,1335.7H904.2c-32.9,0-59.6-26.7-59.6-59.6V729.2c0-32.9,26.7-59.6,59.6-59.6h882.5
			c32.9,0,59.6,26.7,59.6,59.6v546.9C1846.3,1309,1819.6,1335.7,1786.7,1335.7z"/>
		<g>
			<path class="st20" d="M1211.3,886.4c0,79.6-64.5,144.1-144.1,144.1S923,966,923,886.4c0-79.6,64.5-144.1,144.1-144.1
				c9,0,17.9,0.8,26.5,2.4c-18,65.6-41.9,152.4-43.5,157.8c3-4.7,90.6-44,150.5-70.5C1207.5,848.9,1211.3,867.2,1211.3,886.4z"/>
			<path class="st21" d="M1208.7,816.4c-52.9,23.3-140.4,62.3-143.2,66.7c1.5-5.1,25.7-93.2,42-152.2
				C1152.4,743.2,1189.3,774.9,1208.7,816.4z"/>
		</g>
		<g>
			<path class="st14" d="M1558.6,713.2c0-6.6,5.4-12,12-12c6.6,0,12,5.4,12,12c0,6.6-5.4,12-12,12
				C1564,725.2,1558.6,719.8,1558.6,713.2z"/>
			<path class="st14" d="M1620.8,713.2c0-6.6,5.4-12,12-12c6.6,0,12,5.4,12,12c0,6.6-5.4,12-12,12
				C1626.2,725.2,1620.8,719.8,1620.8,713.2z"/>
			
				<ellipse transform="matrix(0.7071 -0.7071 0.7071 0.7071 -7.2704 1408.8099)" class="st21" cx="1696.9" cy="713.2" rx="12" ry="12"/>
		</g>
		<g>
			<g>
				<path class="st14" d="M1187.1,1286.1H908.2v-88.7h278.9V1286.1z M911.6,1282.7h272v-81.9h-272V1282.7z"/>
			</g>
			<g>
				<rect x="928.4" y="1221.2" class="st14" width="107.9" height="7"/>
				<rect x="1047.6" y="1221.2" class="st14" width="76.5" height="7"/>
				<rect x="928.4" y="1241.3" class="st14" width="59.5" height="7"/>
				<rect x="998" y="1241.3" class="st14" width="76.5" height="7"/>
				<rect x="1082.5" y="1241.3" class="st14" width="76.5" height="7"/>
			</g>
		</g>
		<g>
			<g>
				<path class="st14" d="M1537.2,1241.3h-138.1v-43.9h138.1V1241.3z M1400.8,1239.6h134.7V1199h-134.7V1239.6z"/>
			</g>
			<g>
				<rect x="1409.1" y="1209.1" class="st14" width="53.4" height="3.5"/>
				<rect x="1468.1" y="1209.1" class="st14" width="37.9" height="3.5"/>
				<rect x="1409.1" y="1219.1" class="st14" width="29.5" height="3.5"/>
				<rect x="1443.6" y="1219.1" class="st14" width="37.9" height="3.5"/>
				<rect x="1485.4" y="1219.1" class="st14" width="37.9" height="3.5"/>
			</g>
		</g>
		<g>
			<g>
				<path class="st14" d="M1701.8,1241.3h-138.1v-43.9h138.1V1241.3z M1565.4,1239.6h134.7V1199h-134.7V1239.6z"/>
			</g>
			<g>
				<rect x="1573.8" y="1209.1" class="st14" width="53.4" height="3.5"/>
				<rect x="1632.8" y="1209.1" class="st14" width="37.9" height="3.5"/>
				<rect x="1573.8" y="1219.1" class="st14" width="29.5" height="3.5"/>
				<rect x="1608.2" y="1219.1" class="st14" width="37.9" height="3.5"/>
				<rect x="1650" y="1219.1" class="st14" width="37.9" height="3.5"/>
			</g>
		</g>
		<g>
			<g>
				<path class="st14" d="M1537.2,1045.9h-138.1v-43.9h138.1V1045.9z M1400.8,1044.2h134.7v-40.5h-134.7V1044.2z"/>
			</g>
			<g>
				<rect x="1409.1" y="1013.7" class="st14" width="53.4" height="3.5"/>
				<rect x="1468.1" y="1013.7" class="st14" width="37.9" height="3.5"/>
				<rect x="1409.1" y="1023.7" class="st14" width="29.5" height="3.5"/>
				<rect x="1443.6" y="1023.7" class="st14" width="37.9" height="3.5"/>
				<rect x="1485.4" y="1023.7" class="st14" width="37.9" height="3.5"/>
			</g>
		</g>
		<g>
			<g>
				<path class="st14" d="M1701.8,1045.9h-138.1v-43.9h138.1V1045.9z M1565.4,1044.2h134.7v-40.5h-134.7V1044.2z"/>
			</g>
			<g>
				<rect x="1573.8" y="1013.7" class="st14" width="53.4" height="3.5"/>
				<rect x="1632.8" y="1013.7" class="st14" width="37.9" height="3.5"/>
				<rect x="1573.8" y="1023.7" class="st14" width="29.5" height="3.5"/>
				<rect x="1608.2" y="1023.7" class="st14" width="37.9" height="3.5"/>
				<rect x="1650" y="1023.7" class="st14" width="37.9" height="3.5"/>
			</g>
		</g>
		<g>
			<g>
				<path class="st14" d="M1537.2,875.8h-138.1v-43.9h138.1V875.8z M1400.8,874.1h134.7v-40.5h-134.7V874.1z"/>
			</g>
			<g>
				<rect x="1409.1" y="843.6" class="st14" width="53.4" height="3.5"/>
				<rect x="1468.1" y="843.6" class="st14" width="37.9" height="3.5"/>
				<rect x="1409.1" y="853.6" class="st14" width="29.5" height="3.5"/>
				<rect x="1443.6" y="853.6" class="st14" width="37.9" height="3.5"/>
				<rect x="1485.4" y="853.6" class="st14" width="37.9" height="3.5"/>
			</g>
		</g>
		<g>
			<g>
				<path class="st14" d="M1701.8,875.8h-138.1v-43.9h138.1V875.8z M1565.4,874.1h134.7v-40.5h-134.7V874.1z"/>
			</g>
			<g>
				<rect x="1573.8" y="843.6" class="st14" width="53.4" height="3.5"/>
				<rect x="1632.8" y="843.6" class="st14" width="37.9" height="3.5"/>
				<rect x="1573.8" y="853.6" class="st14" width="29.5" height="3.5"/>
				<rect x="1608.2" y="853.6" class="st14" width="37.9" height="3.5"/>
				<rect x="1650" y="853.6" class="st14" width="37.9" height="3.5"/>
			</g>
		</g>
		<g>
			<g>
				<path class="st21" d="M1308.2,804.4c0-8.6,7-15.6,15.6-15.6s15.6,7,15.6,15.6c0,8.6-7,15.6-15.6,15.6S1308.2,813,1308.2,804.4z"
					/>
				<g>
					<path class="st21" d="M1324.8,781.5h-1.3c-1.4,0-2.6-1.2-2.6-2.6V750c0-1.4,1.2-2.6,2.6-2.6h1.3c1.4,0,2.6,1.2,2.6,2.6v28.9
						C1327.4,780.3,1326.2,781.5,1324.8,781.5z"/>
					<path class="st21" d="M1324.8,862.4h-1.3c-1.4,0-2.6-1.2-2.6-2.6v-28.9c0-1.4,1.2-2.6,2.6-2.6h1.3c1.4,0,2.6,1.2,2.6,2.6v28.9
						C1327.4,861.2,1326.2,862.4,1324.8,862.4z"/>
					<g>
						<path class="st21" d="M1342.5,819.2l0.9-1.2c0.8-1.1,2.4-1.4,3.5-0.5l23.5,17.2c1.1,0.8,1.4,2.4,0.5,3.5l-0.9,1.2
							c-0.8,1.1-2.4,1.4-3.5,0.5l-23.5-17.2C1342,821.9,1341.7,820.4,1342.5,819.2z"/>
						<path class="st21" d="M1277.2,771.6l0.9-1.2c0.8-1.1,2.4-1.4,3.5-0.5l23.5,17.2c1.1,0.8,1.4,2.4,0.5,3.5l-0.9,1.2
							c-0.8,1.1-2.4,1.4-3.5,0.5l-23.5-17.2C1276.6,774.3,1276.4,772.7,1277.2,771.6z"/>
					</g>
					<g>
						<path class="st21" d="M1305.9,819.9l1,1.1c0.9,1,0.8,2.6-0.2,3.5l-21.7,19.4c-1,0.9-2.6,0.8-3.5-0.2l-1-1.1
							c-0.9-1-0.8-2.6,0.2-3.5l21.7-19.4C1303.3,818.8,1304.9,818.8,1305.9,819.9z"/>
						<path class="st21" d="M1366.1,766l1,1.1c0.9,1,0.8,2.6-0.2,3.5l-21.7,19.4c-1,0.9-2.6,0.8-3.5-0.2l-1-1.1
							c-0.9-1-0.8-2.6,0.2-3.5l21.7-19.4C1363.6,764.9,1365.2,765,1366.1,766z"/>
					</g>
					<g>
						<path class="st21" d="M1300.1,803.3l0,1.5c0,1.4-1.2,2.5-2.5,2.5l-29.1-0.3c-1.4,0-2.5-1.2-2.5-2.5l0-1.5
							c0-1.4,1.2-2.5,2.5-2.5l29.1,0.3C1299,800.8,1300.1,802,1300.1,803.3z"/>
						<path class="st21" d="M1380.9,804.4l0,1.3c0,1.4-1.2,2.6-2.7,2.6l-28.9-0.3c-1.4,0-2.6-1.2-2.6-2.7l0-1.3
							c0-1.4,1.2-2.6,2.7-2.6l28.9,0.3C1379.8,801.7,1381,802.9,1380.9,804.4z"/>
					</g>
				</g>
			</g>
			<g>
				<g>
					<path class="st14" d="M1710.4,814.4h-311.3v-25.2h311.3V814.4z M1402.1,811.4h305.4v-19.3h-305.4V811.4z"/>
				</g>
				<rect x="1400.6" y="790.6" class="st14" width="241.6" height="22.3"/>
			</g>
		</g>
		<g>
			<path class="st14" d="M1302.5,979.4c0-20.4,31.3-58.9,31.3-58.9s31.3,38.5,31.3,58.9s-14,36.9-31.3,36.9
				C1316.5,1016.3,1302.5,999.8,1302.5,979.4z"/>
			<g>
				<g>
					<path class="st21" d="M1710.4,981h-311.3v-25.2h311.3V981z M1402.1,978.1h305.4v-19.3h-305.4V978.1z"/>
				</g>
				<rect x="1400.6" y="957.3" class="st21" width="147.7" height="22.3"/>
			</g>
		</g>
		<g>
			<path class="st14" d="M1347.2,1180.5v-81.7h-17.6v81.7c-5.8,3.1-9.8,9.3-9.8,16.4c0,10.3,8.3,18.6,18.6,18.6
				c10.3,0,18.6-8.3,18.6-18.6C1356.9,1189.8,1353,1183.7,1347.2,1180.5z"/>
			<g>
				<g>
					<path class="st14" d="M1710.4,1169.8h-311.3v-25.2h311.3V1169.8z M1402.1,1166.8h305.4v-19.3h-305.4V1166.8z"/>
				</g>
				<rect x="1400.6" y="1146" class="st14" width="202.6" height="22.3"/>
			</g>
			<path class="st21" d="M1326.3,1196.8c0-6.7,5.4-12.1,12.1-12.1s12.1,5.4,12.1,12.1c0,6.7-5.4,12.1-12.1,12.1
				S1326.3,1203.5,1326.3,1196.8z"/>
			<rect x="1334.5" y="1153.6" class="st21" width="7.2" height="37.8"/>
		</g>
		<g>
			<rect x="909.9" y="1129.8" class="st14" width="29.1" height="40.4"/>
			<rect x="959.7" y="1103" class="st14" width="29.1" height="67.2"/>
			<rect x="1009.5" y="1081" class="st21" width="29.1" height="89.2"/>
			<rect x="1059.4" y="1098.9" class="st14" width="29.1" height="71.4"/>
			<rect x="1109.2" y="1060.9" class="st14" width="29.1" height="109.4"/>
			<rect x="1159" y="1041.4" class="st21" width="29.1" height="128.9"/>
		</g>
		<rect x="998" y="950.2" class="st22" width="61.4" height="5.6"/>
		<rect x="998" y="963" class="st22" width="94" height="5.6"/>
		<rect x="1106.9" y="779.9" class="st22" width="61.4" height="5.6"/>
		<rect x="1106.9" y="792.8" class="st22" width="38.4" height="5.6"/>
	</g>
	<g>
		<path class="st23" d="M2307.9,905.5c0,0,116.4,132.3,157,213.9c0,0-48.8,106.3-207.1,192.7c0,0-7-1.5-17.8-9.2
			c-16.7-12,1.8-20.7,5.5-23.1c40.2-26,110.3-138.1,112.4-147.8c2-9.7-87.9-96.9-115.3-129.2
			C2215.2,970.7,2265.4,888.9,2307.9,905.5z"/>
		<path class="st23" d="M2003.8,901.8c0,0-152.3,145-187.6,141.2c-35.2-3.8-173-37.1-173-37.1l-11.5,26.4c0,0,138.3,81.2,204.7,80
			s153.3-64.4,153.3-64.4L2003.8,901.8z"/>
		<path class="st24" d="M2114.4,711c0,0,0.8,16.3-9,19.5c-9.8,3.2,10.1,38.4,8.5,62.2c-1.6,23.8-12.1,33.3-12.1,33.3
			s5.1-13.1,2.2-21.2c0,0,0.5,16.8-11.8,25.3c-12.3,8.5-9,15.8-9,15.8s-27.8-8.3-28.5-29.1c0,0-1.2,9.4-0.2,13.3
			c0,0-24-18-25.1-38.7c-1.1-20.7,18.9-38.2,28-38.5c9.1-0.3,29.4-18.2,28.9-25C2085.7,721.1,2114.4,711,2114.4,711z"/>
		
			<ellipse transform="matrix(0.55 -0.8352 0.8352 0.55 409.0321 2098.2427)" class="st25" cx="2151.6" cy="669.6" rx="53.2" ry="136.5"/>
		<path class="st26" d="M2178.3,1468.4c-17.5,92.5-39.9,218.4-57.3,316.8c-2.1,11.6-4,22.9-5.9,33.6c-0.4,2.5-0.9,5-1.3,7.4h-173.4
			c-0.2-2.5-0.5-4.9-0.7-7.4c-7.7-83.9-6.7-158-1.9-219.5c1.9-23.9,4.3-45.9,7-65.8c11.4-117.8,15.2-167.8,16.4-184.3l0.2-3.6
			c0-0.2,0-0.4,0-0.6l0-0.6c0-0.3,0-0.6,0.1-0.9l0-0.7c0-0.2,0-0.4,0-0.4l59.1,17.6l28.9,8.6l6.8,21.7l13.6,43.3l98.9,31.9
			L2178.3,1468.4z"/>
		<path class="st13" d="M2292,1491.7c-3,48.1-7.9,217.6-13.4,327.1c-0.1,2.5-0.2,5-0.4,7.4h-179.8c-0.6-2.4-1.1-4.9-1.7-7.4
			c-19.1-85.8-34.7-182.2-45.9-260.4c-2,0.1-22.5-139.7-73.9-201.3c-0.5-0.6-0.5-1-0.2-1.3c2.5-3.3,35.2,2.4,35.2,2.4
			c2.8,0.7,5.7,1.3,8.9,1.7c24.7,3.4,60.5-2.1,96.1-10.4c0,0,0,0,0,0c9.6-2.2,19.2-4.7,28.5-7.2c26.3-7.1,50.7-15,68.1-20.9
			c4.3-1.5,8.2-2.8,11.6-4c2.7-1,5.1-1.8,7.1-2.5c0,0,0,0,0,0c4.8-1.7,7.6-2.8,7.6-2.8s1.2,1.1,3.3,3.3c6.9,7.4,23.2,27.3,35.3,62.1
			C2288.1,1405.6,2295,1443.2,2292,1491.7z"/>
		<path class="st24" d="M2073.1,597.3l113.1,171.7c0,0,12.9-25.3,27.3-16.3c22.4,14.2,70.6-34.3,60.5-102.8
			c-0.7-4.5-1.4-8.7-2.3-12.8c-22.6-32.5-47.6-68.7-65.6-94.2C2154.2,511.6,2073.1,597.3,2073.1,597.3z"/>
		<path class="st23" d="M2023.4,944.1c15.8,14.5,36.4,27.5,63,37.6c99.9,37.9,151.3-43.9,174.3-101.8c-13-10-26-13.5-33.5-15.5
			c-5.9-1.5-12-2.9-17.5-4c-2.9-0.6-5.5-2.3-7.1-4.7c-9.5-14.4-19.2-50.8-15.7-102l-5,0.6l-84.3,11.2c0,0,0.2,26.3-1.3,51
			c-0.7,10.6-1.6,20.9-3.1,28.7c-1.4,7.4-7.5,13.1-15.1,13.8l0,0c0,0,0,0-0.1,0.1C2076.7,860.7,2047.8,896.3,2023.4,944.1z"/>
		<path class="st27" d="M2097.5,765.5c0,0,0.2,26.3-1.3,51c46.7,1.7,74-39.3,85.6-62.2L2097.5,765.5z"/>
		<path class="st23" d="M2080.4,787.9c0,0,110.1,8.8,114.6-59.8c4.4-68.7,21.7-113.8-48.5-122.3c-70.1-8.5-85.5,16.8-92.6,39.3
			C2046.9,667.6,2051.9,783.8,2080.4,787.9z"/>
		<path class="st24" d="M2059.7,607.1c18.4-19.6,30.9-14.2,37.8-7.6c62.4-29.3,98.1,22.2,98.1,22.2c4.2,49.7,38,80.2,38,80.2
			s-20.9,11.1-66.5-3.7c-13.9-4.5-25.9-15.4-35.9-28.3c16.7,32.6,40.8,56.9,40.8,56.9c-53.7-29.1-71-107.5-72.7-115.8
			c-7.1,5.6-21.2,17.9-26.1,30.5c-6.6,17.1-11.4,53-21.8,51.1C2051.4,692.6,2032.1,636.4,2059.7,607.1z"/>
		<path class="st16" d="M2276.4,683.7c0,0,51.2-102-20.4-142.3c-71.6-40.3-124-24.5-163.3,24.8L2276.4,683.7z"/>
		<path class="st21" d="M2279.3,1063.2c3.9,4.1,6.4,6.4,6.4,6.4c83.4-10.4,87.3-96.1,87.3-96.1s-65.3-86.1-126.3-105.1
			c-14.8-4.6-37.1-8-37.1-8c-19.1,15.8-41.1,39-61.7,57.8c-23.8,21.7-64.8,29.1-80-9.4c-6.1-15.4,8.5-47.5,10-49.8
			c0-0.1,0-0.1,0-0.1c-1.6,0.1-3.1,0.2-4.6,0.3c-7.5,0.6-14.2,1.5-20.3,2.1c-29.8,3-70.9,22.7-153.9,127.8c0,0,44.9,55.4,90.5,58.6
			c-1.8,87.8,7.6,230.8,7.6,230.8c-19.9,39.2,275.9,129.9,288.7,92.5c19.2-29.2,0-85.2-16.5-128c-4.1-10.5-5-21.6-8.6-29.7
			c-2.3-5.2-4.2-10.5-5.5-16c-3.4-13.7-3.8-28.1-1-42C2261.4,1121.4,2270.9,1089.7,2279.3,1063.2z"/>
		<path class="st2" d="M2282,670.7c-2.2-2.2-4.4-4.4-6.7-6.7l0,0c-22.1-21.6-50.2-43.6-82.6-63.8c-26-16.2-51.9-29.5-76.2-39.4h0
			c-4.8-2-9.6-3.8-14.2-5.5c-55.7-20.4-100.6-21.9-114.2-0.1c-14.3,23,9.9,65.8,57.5,109.2l0,0c0-0.4-0.1-0.8-0.1-1.1
			c0-0.4-0.1-0.8-0.1-1.1c0-0.4-0.1-0.9-0.1-1.3c0-0.3,0-0.6-0.1-1c0-0.5-0.1-1.1-0.1-1.6c0-0.7-0.1-1.4-0.1-2.1c0-0.1,0-0.2,0-0.2
			c0-0.5,0-1,0-1.5v-0.5c0-0.3,0-0.7,0-1c0-1.2,0-2.4,0-3.7c0-0.4,0-0.9,0-1.3c0-0.2,0-0.5,0-0.7c0-0.4,0-0.8,0.1-1.2
			c0-0.8,0.1-1.5,0.1-2.2c0.1-0.7,0.1-1.5,0.2-2.2c0,0,0-0.1,0-0.1c0-0.3,0.1-0.5,0.1-0.8c0-0.2,0-0.3,0.1-0.5
			c0.1-0.5,0.1-1,0.2-1.6c0.1-0.8,0.2-1.7,0.4-2.5c0-0.1,0-0.3,0.1-0.4c0.2-1,0.4-2,0.6-3c0.1-0.5,0.2-1,0.3-1.5c0-0.1,0-0.1,0-0.2
			c-5.1-10.7-6-20-1.9-26.6c4.8-7.7,15.7-10.8,30.5-9.8c0,0,0,0,0,0c0.4,0,0.8,0.1,1.2,0.1h0c5.5,0.4,11.5,1.4,17.8,2.9h0
			c1.5,0.3,3,0.7,4.6,1.1c5.6,1.5,11.5,3.3,17.6,5.5h0.1c18.2,6.6,38.3,16.4,58.5,28.9c8.4,5.2,16.3,10.7,23.7,16.2h0
			c0.7,0.6,1.5,1.1,2.2,1.7c34.3,26,56.9,53.9,59.5,73.2c0.7,5.1,0,9.7-2.4,13.4c-0.2,0.3-0.4,0.6-0.6,0.9c0,0,0,0.1-0.1,0.1
			c-1.5,2.1-3.5,3.8-6,5.1c0,0,0,0,0,0c-0.3,0.2-0.7,0.4-1,0.5c0,0,0,0,0,0c-2.5,1.2-5.4,2.1-8.7,2.7c0,0,0,0,0,0s0,0,0,0
			c-0.3,0.3-0.6,0.5-1,0.8c-0.2,0.2-0.5,0.4-0.7,0.5c-0.2,0.2-0.5,0.3-0.7,0.5c-0.1,0-0.1,0.1-0.2,0.2c-0.4,0.3-0.8,0.6-1.2,0.8
			c-0.6,0.4-1.3,0.8-1.9,1.2c-0.3,0.2-0.6,0.4-1,0.5c-0.3,0.2-0.6,0.3-1,0.5c-0.4,0.2-0.8,0.4-1.3,0.6c-0.2,0.1-0.3,0.2-0.5,0.2
			c-0.2,0.1-0.3,0.1-0.5,0.2c0,0,0,0,0,0c0,0-0.1,0-0.1,0c-0.2,0.1-0.4,0.2-0.6,0.2c-0.3,0.1-0.6,0.2-0.9,0.3
			c-0.4,0.1-0.7,0.3-1.1,0.4c-0.3,0.1-0.7,0.2-1,0.3c0,0-0.1,0-0.1,0c-0.3,0.1-0.6,0.1-0.8,0.2c-0.1,0-0.2,0.1-0.3,0.1
			c-0.3,0.1-0.5,0.1-0.8,0.2c-0.3,0.1-0.6,0.1-1,0.2c-0.2,0-0.4,0.1-0.6,0.1c-0.2,0-0.5,0.1-0.7,0.1c-0.3,0-0.6,0.1-0.9,0.1
			c-0.1,0-0.2,0-0.4,0h-0.1c-0.1,0-0.2,0-0.2,0h-0.1c-0.1,0-0.2,0-0.3,0c-0.8,0-1.6,0-2.4-0.1c-0.8-0.1-1.5-0.3-2.3-0.5
			c-0.4-0.1-0.7-0.2-1.1-0.3c-0.3-0.1-0.5-0.2-0.8-0.3c-0.2-0.1-0.4-0.2-0.6-0.3c-0.2-0.1-0.3-0.1-0.5-0.2c-0.1-0.1-0.3-0.1-0.4-0.2
			c-0.3-0.1-0.6-0.3-0.8-0.5c-0.6-0.4-1.1-0.7-1.7-0.9c-0.2-0.1-0.4-0.2-0.5-0.2c-0.1,0-0.1-0.1-0.2-0.1c-0.3-0.1-0.5-0.2-0.8-0.3
			c-1.1-0.3-2.1-0.5-3.2-0.5c0,0,0,0,0,0h-0.1c0,0-0.1,0-0.1,0h-0.1c-0.1,0-0.3,0-0.4,0c-0.1,0-0.2,0-0.3,0c-0.2,0-0.5,0-0.7,0.1
			c0,0,0,0-0.1,0c-0.1,0-0.2,0-0.3,0.1c-0.2,0-0.4,0.1-0.5,0.1c-0.2,0-0.3,0.1-0.5,0.1c-0.2,0-0.4,0.1-0.6,0.2
			c-0.1,0-0.3,0.1-0.4,0.1c-0.2,0.1-0.4,0.1-0.6,0.2c0,0,0,0,0,0c-0.2,0.1-0.3,0.1-0.5,0.2c-0.1,0.1-0.3,0.1-0.4,0.2
			c-0.2,0.1-0.3,0.2-0.5,0.3l-0.5,0.3c-0.2,0.1-0.3,0.2-0.5,0.3c-0.2,0.1-0.3,0.2-0.5,0.3c-0.2,0.1-0.3,0.2-0.5,0.3
			c-0.2,0.1-0.3,0.2-0.5,0.3c-0.3,0.2-0.6,0.4-0.9,0.7c-0.2,0.1-0.3,0.2-0.4,0.4c-0.1,0.1-0.3,0.2-0.4,0.4c-0.3,0.2-0.6,0.5-0.9,0.8
			c-0.3,0.2-0.6,0.5-0.8,0.8c-0.1,0.1-0.3,0.3-0.4,0.4c-0.1,0.1-0.3,0.3-0.4,0.4c-0.2,0.1-0.3,0.3-0.4,0.4h0
			c5.4,2.2,10.7,4.3,15.9,6.2c16.7,6.1,32.4,10.4,46.6,13c32.9,5.9,57.5,2.1,67-13.1C2335.9,744,2318.7,708.5,2282,670.7z"/>
		<path class="st28" d="M2215.9,1248.8c42.6,13.7,22.7-9.7,55.6-7.3c-4.1-10.5-7.1-19.9-10.7-28c-2.3-5.2-4.2-10.5-5.5-16
			c-3.4-13.7-3.8-28.1-1-42c7.6-37.1,15.9-64.3,24.9-92.2c-9.4-24.7-49.6,15.8-49.6,15.8s-37.2,39.1-27.5,105.6
			C2211.3,1246.5,2179.2,1237,2215.9,1248.8z"/>
		<path class="st13" d="M2246.8,868.5c0,0-68.8,44-86.4,136.7l-20.8-6.6c0,0,8.8-66.8,88.3-134.7c0,0,6,1.2,8,1.7
			C2238.6,866.1,2246.8,868.5,2246.8,868.5z"/>
		<path class="st13" d="M2003.8,1007.5l21.8,1.4c-4.4-80.4,36-135.2,47.9-149.6c-7.5,0.6-14.2,1.3-20.3,2.1
			C2008.9,928.9,2003.8,1007.5,2003.8,1007.5z"/>
		<path class="st13" d="M2158.3,1056.5c1.3-5.7,14.7-61.4,14.7-61.4s3.1-17.4-27.5-19.1c-30.6-1.7-139-7.4-139-7.4
			s-14.8,8.9-15,27.2c-0.2,18.3-15,123-15,123l-15.2,230.3l330.7,142.5c0,0,22.7-116.4-2.7-197.5c-14.8-47.3-33.9-96.7-33.9-96.7
			S2137.7,1144,2158.3,1056.5z"/>
		<g>
			<g>
				<path class="st28" d="M2161.2,997c1.5-4.8-1.1-9.9-5.9-11.5c-4.8-1.5-9.9,1.1-11.5,5.9c-1.5,4.8,1.1,9.9,5.9,11.5
					C2154.6,1004.5,2159.7,1001.8,2161.2,997z"/>
				<path class="st21" d="M2159.7,996.5c1.5-4.8-1.1-9.9-5.9-11.5c-4.8-1.5-9.9,1.1-11.5,5.9c-1.5,4.8,1.1,9.9,5.9,11.5
					C2153,1004,2158.2,1001.3,2159.7,996.5z"/>
			</g>
			<path class="st13" d="M2156.6,993.8c0-0.7-0.6-1.3-1.3-1.3c-0.7,0-1.3,0.6-1.3,1.3s0.6,1.3,1.3,1.3
				C2156,995.1,2156.6,994.5,2156.6,993.8z"/>
			<path class="st13" d="M2148,993.8c0-0.7-0.6-1.3-1.3-1.3c-0.7,0-1.3,0.6-1.3,1.3c0,0.7,0.6,1.3,1.3,1.3
				C2147.4,995.1,2148,994.5,2148,993.8z"/>
		</g>
		<g>
			<g>
				<path class="st28" d="M2026.8,985.4c1.5-4.8-1.1-9.9-5.9-11.5s-9.9,1.1-11.5,5.9c-1.5,4.8,1.1,9.9,5.9,11.5
					C2020.1,992.9,2025.2,990.2,2026.8,985.4z"/>
				<path class="st21" d="M2025.2,984.9c1.5-4.8-1.1-9.9-5.9-11.5c-4.8-1.5-9.9,1.1-11.5,5.9c-1.5,4.8,1.1,9.9,5.9,11.5
					C2018.5,992.4,2023.7,989.7,2025.2,984.9z"/>
			</g>
			<path class="st13" d="M2022.2,982.1c0-0.7-0.6-1.3-1.3-1.3c-0.7,0-1.3,0.6-1.3,1.3c0,0.7,0.6,1.3,1.3,1.3
				C2021.6,983.5,2022.2,982.9,2022.2,982.1z"/>
			<path class="st13" d="M2013.5,982.2c0-0.7-0.6-1.3-1.3-1.3c-0.7,0-1.3,0.6-1.3,1.3c0,0.7,0.6,1.3,1.3,1.3
				C2012.9,983.5,2013.5,982.9,2013.5,982.2z"/>
		</g>
		<path class="st24" d="M2261.2,724.1c0,0,0.8,16.3-9,19.5c-9.8,3.2,10.1,38.4,8.5,62.2c-1.6,23.8-12.1,33.3-12.1,33.3
			s5.1-13.1,2.2-21.2c0,0,0.5,16.8-11.8,25.3c-12.3,8.5-9,15.8-9,15.8s-27.8-8.3-28.5-29.1c0,0-1.2,9.4-0.2,13.3
			c0,0-24-18-25.1-38.7c-1.1-20.7,18.9-38.2,28-38.5c9.1-0.3,29.4-18.2,28.9-25C2232.5,734.2,2261.2,724.1,2261.2,724.1z"/>
		<path class="st29" d="M2114.4,749.5c0,0-16.4,9.9-28.1,8.8c-11.6-1.1-17.9-15.1-17.9-15.1S2090.9,739.9,2114.4,749.5z"/>
		<g>
			<g>
				<path class="st30" d="M2218.5,1342.4h-221c-9.3,0-19.8-7.5-23.6-16.8l-55.6-137c-3.8-9.3,0.7-16.8,9.9-16.8h221
					c9.3,0,19.8,7.5,23.6,16.8l55.6,137C2232.2,1334.9,2227.7,1342.4,2218.5,1342.4z"/>
			</g>
			<g>
				<path class="st31" d="M2205.3,1342.4h-221c-9.3,0-19.8-7.5-23.6-16.8l-55.6-137c-3.8-9.3,0.7-16.8,9.9-16.8h221
					c9.3,0,19.8,7.5,23.6,16.8l55.6,137C2219,1334.9,2214.5,1342.4,2205.3,1342.4z"/>
				<g>
					<path class="st13" d="M1927.1,1182.4L1927.1,1182.4c4.2,0,9.1,3.4,10.8,7.7l0,0c1.7,4.2-0.3,7.7-4.5,7.7l0,0
						c-4.2,0-9.1-3.4-10.8-7.7l0,0C1920.8,1185.8,1922.9,1182.4,1927.1,1182.4z"/>
					<path class="st13" d="M1951.4,1185.6L1951.4,1185.6c2.5,0,5.3,2,6.3,4.5l0,0c1,2.5-0.2,4.5-2.7,4.5l0,0c-2.5,0-5.3-2-6.3-4.5
						l0,0C1947.7,1187.6,1948.9,1185.6,1951.4,1185.6z"/>
				</g>
			</g>
			<path class="st30" d="M2037.9,1252.8c-3.7-9.1,0.7-16.4,9.8-16.4c9.1,0,19.4,7.4,23.1,16.4c3.7,9.1-0.7,16.4-9.8,16.4
				C2051.9,1269.2,2041.6,1261.9,2037.9,1252.8z"/>
		</g>
		<g>
			<path class="st23" d="M2244.8,1281.5c0,0-30.4-17.3-37.7-25.3c-4.7-5.2-5,1.5-4.7,3.3c0.6,3.7,1.2,11.2,9.8,18.2
				C2224.6,1287.9,2244.8,1281.5,2244.8,1281.5z"/>
			<path class="st23" d="M2244.8,1281.5c0,0-54.8-16.5-67.4-15c-12.6,1.4-41.5,10.4-43.8,12.8c-2.3,2.3,7.6,4.8,15.2,2.6
				c9.7-2.8,24.9,0.4,24.9,0.4s-30.7,6.7-38.4,10.1c-0.8,0.3-0.9,1.4-0.2,1.9c1.8,1.5,6.6,2.4,13.4,1.4c9.8-1.4,26.9-1.1,26.9-1.1
				l-34.9,7.6c-0.4,0.1-0.8,0.5-0.7,0.9c0.1,1.7,2.8,3.4,11,3.8c6.3,0.3,27.6-2.9,27.6-2.9l-19,10c0,0,4.6,3.3,14.3,0.1
				c6.6-2.2,26.5-7.2,31.1-6.2c4.6,1,27.4,9,38.2,7.7c10.5-1.3,15.1-3.3,15.1-3.3L2244.8,1281.5z"/>
		</g>
		<g>
			<path class="st23" d="M1643.2,1005.9c0,0-27.5-29.4-37.6-32.9s-46.2-9.6-46.2-9.6s0.1,8.6,16.3,14.6c16.1,6,19.5,34,29.1,41.9
				c9.5,7.9,34.8,14.8,34.8,14.8L1643.2,1005.9z"/>
			<path class="st23" d="M1631.7,1032.3c0,0-26.8-1.2-35.5-6.6c-8.7-5.5-22.9-12.6-20.2-17c2.7-4.4,32.3-1.1,32.3-1.1L1631.7,1032.3
				z"/>
			<path class="st23" d="M1603.4,978.1c-1.4-0.6-37.1-24.5-37.1-24.5s-3,11.3,2.3,13.5C1573.8,969.2,1603.4,978.1,1603.4,978.1z"/>
		</g>
		<path class="st23" d="M2397.2,1209c-32.1,32.4-77.3,69.3-139.3,103.2c0,0-7-1.5-17.8-9.2c-16.7-12,1.8-20.7,5.5-23.1
			c18.2-11.8,42.6-41.3,64-70.8H2397.2z"/>
	</g>
	<path class="st5" d="M636.6,1823.3H368.8c0-0.1-0.1-0.2-0.1-0.3c-0.3-0.9-0.8-2.1-1.3-3.6l-0.2-0.4c0,0,0,0,0-0.2
		c0,0-0.2-0.2-0.2-0.5c-0.9-1.8-1.6-3.8-2.5-6.3c-0.5-1.1-0.9-2.5-1.6-3.8c0-0.2,0-0.2,0-0.5c-0.2-0.2-0.2-0.2-0.2-0.2
		c-3.1-8-6.9-18.5-11.3-31.1c-0.4-1.1-0.8-2.3-1.2-3.5c-3.3-9.5-7-20.2-10.8-32c-1.8-5.5-3.6-11.3-5.5-17.3
		c26.5-7.4,61.1-12.4,91.9-2.4c19.9,6.5,33.4,16,43.9,25.6c21.2,19.3,30,38.4,54.6,30.9c6.1-1.8,13.4-2.9,21.4-3.3
		C585.3,1772.7,640.2,1789.5,636.6,1823.3z"/>
	<path class="st32" d="M2998.8,1822v1.1c0,1.7-1.4,3.1-3.1,3.1H218.1c-1.7,0-3.1-1.4-3.1-3.1v-1.1c0-1.7,1.4-3.2,3.1-3.2h2777.6
		C2997.4,1818.8,2998.8,1820.2,2998.8,1822z"/>
</g>
</svg>
